<?xml version="1.0" standalone="no"?>
<!DOCTYPE svg PUBLIC "-//W3C//DTD SVG 20010904//EN"
 "http://www.w3.org/TR/2001/REC-SVG-20010904/DTD/svg10.dtd">
<svg version="1.0" xmlns="http://www.w3.org/2000/svg"
 width="512.000000pt" height="512.000000pt" viewBox="0 0 512.000000 512.000000"
 preserveAspectRatio="xMidYMid meet">
<metadata>
Created by potrace 1.16, written by Peter Selinger 2001-2019
</metadata>
<g transform="translate(0.000000,512.000000) scale(0.100000,-0.100000)"
fill="#000000" stroke="none">
<path d="M739 4597 c-9 -7 -21 -22 -27 -34 -9 -16 -12 -518 -12 -2013 l0
-1991 25 -24 24 -25 1809 0 1809 0 24 26 24 26 0 1998 0 1998 -24 26 -24 26
-1806 0 c-1404 -1 -1810 -3 -1822 -13z m3606 -2037 l0 -1985 -1785 0 -1785 0
-3 1975 c-1 1086 0 1981 3 1988 3 10 366 12 1787 10 l1783 -3 0 -1985z"/>
<path d="M962 4338 c-9 -9 -12 -352 -12 -1484 0 -810 3 -1479 6 -1488 6 -15
156 -16 1598 -16 1225 0 1595 3 1604 12 9 9 12 353 12 1484 0 1325 -2 1474
-16 1488 -14 14 -173 16 -1598 16 -1217 0 -1585 -3 -1594 -12z m3138 -390 c0
-182 -2 -329 -5 -326 -4 3 -6 69 -6 147 1 118 -2 141 -14 141 -8 0 -15 5 -15
11 0 5 -4 7 -10 4 -5 -3 -10 1 -10 10 0 9 4 13 10 10 6 -3 7 1 4 9 -3 9 -16
16 -28 17 -11 0 -15 3 -8 6 6 2 9 10 5 16 -4 7 -1 7 9 -1 9 -7 19 -9 21 -5 9
14 -9 36 -22 29 -7 -5 -8 -1 -4 10 5 13 3 15 -8 9 -11 -7 -12 -6 -3 6 5 8 9
20 8 27 -1 6 -2 17 -3 23 0 5 -6 7 -13 3 -6 -4 -8 -3 -5 3 4 6 -6 10 -23 9
-21 -1 -29 -5 -25 -14 3 -8 5 -19 5 -25 0 -7 4 -6 10 3 8 12 10 12 10 1 0 -10
3 -11 13 -2 10 8 14 7 14 -4 0 -8 -4 -12 -9 -9 -12 8 -6 -29 7 -39 6 -4 3 -7
-7 -5 -9 2 -24 -6 -32 -17 -15 -20 -15 -20 -9 3 3 12 9 22 12 22 4 0 8 6 8 14
0 8 -8 13 -19 11 -12 -3 -18 2 -18 13 0 15 -2 15 -10 2 -6 -10 -10 -11 -10 -2
0 6 -7 12 -15 12 -9 0 -12 6 -8 16 3 9 9 12 12 7 3 -4 14 -9 24 -11 15 -3 17
0 8 17 -14 25 -14 41 -1 21 8 -12 10 -12 11 5 l0 20 8 -20 c7 -16 10 -11 16
25 5 25 9 62 10 82 l2 38 -67 -1 c-79 -1 -100 -10 -81 -33 10 -12 9 -17 -8
-26 -14 -7 -21 -7 -21 0 0 5 8 11 18 11 15 1 15 2 1 6 -11 3 -15 11 -12 23 5
19 -1 20 -168 17 -149 -2 -173 -4 -170 -17 2 -8 4 -23 5 -32 0 -9 3 -15 7 -12
4 2 12 -3 19 -11 11 -14 15 -14 31 1 11 10 19 12 19 6 0 -7 -4 -12 -9 -12 -4
0 -7 -10 -6 -22 3 -32 3 -32 22 -17 11 10 14 10 9 2 -4 -7 -3 -13 2 -13 5 0
12 -10 15 -22 5 -20 4 -21 -6 -6 -9 12 -18 14 -30 7 -13 -8 -15 -6 -10 7 5 13
3 15 -7 9 -8 -5 -11 -4 -7 2 4 6 -1 19 -9 29 -9 10 -13 14 -10 7 4 -6 1 -15
-5 -19 -9 -5 -10 0 -7 14 5 18 2 22 -16 22 -14 0 -23 6 -23 15 0 8 4 15 8 15
5 0 6 7 2 16 -4 12 -7 13 -14 3 -4 -8 -11 -10 -15 -6 -4 4 1 13 11 21 17 12
11 14 -49 14 -52 0 -66 -3 -62 -14 3 -7 1 -16 -4 -19 -6 -4 -10 1 -10 9 0 9
-1 16 -2 17 -2 1 -68 3 -147 5 -92 3 -148 0 -156 -6 -9 -8 -15 -8 -20 0 -3 5
-15 10 -27 10 -17 0 -18 -2 -8 -15 11 -14 7 -19 -12 -16 -5 0 -8 -3 -8 -9 0
-5 6 -10 13 -10 6 -1 2 -9 -10 -19 -12 -10 -20 -21 -17 -24 3 -3 1 -14 -5 -24
-9 -16 -10 -15 -11 10 0 15 -3 27 -7 27 -13 0 -30 -14 -37 -30 -4 -9 -5 -7 -2
6 2 12 -1 28 -5 37 -6 10 -5 18 2 23 7 4 9 3 5 -4 -3 -6 -2 -13 4 -17 5 -3 10
3 10 14 0 11 4 22 9 26 6 3 8 -4 6 -17 -5 -25 15 -44 27 -25 11 17 10 29 -1
22 -6 -3 -9 3 -8 14 1 16 4 18 16 8 11 -10 13 -9 9 3 -6 21 -197 28 -209 8 -5
-7 -9 -8 -9 -2 0 7 -34 11 -92 12 -51 1 -88 -2 -82 -6 6 -4 14 -17 18 -29 5
-17 3 -23 -8 -23 -8 0 -18 5 -22 12 -4 7 -3 8 4 4 16 -10 15 17 0 32 -7 7 -38
12 -73 11 -50 -1 -55 -2 -31 -9 16 -5 34 -6 40 -3 6 3 8 3 4 -2 -4 -4 -3 -14
4 -22 8 -10 1 -9 -23 3 -80 40 -89 42 -89 20 0 -8 -4 -17 -9 -20 -5 -4 -7 3
-4 14 5 18 0 20 -50 20 -31 0 -59 -4 -62 -10 -3 -5 -12 -10 -18 -10 -7 0 -6 4
3 10 11 8 2 10 -33 8 -31 -1 -53 -8 -64 -20 -9 -10 -12 -18 -7 -18 12 0 -18
-20 -30 -20 -6 0 3 14 19 30 l29 30 -117 0 c-71 0 -117 -4 -117 -10 0 -5 -7
-10 -15 -10 -8 0 -15 4 -15 10 0 6 -56 10 -147 9 -95 0 -142 -3 -133 -9 9 -6
10 -10 3 -10 -6 0 -15 5 -18 10 -4 6 -50 10 -108 9 -81 0 -96 -3 -74 -11 15
-5 27 -14 27 -20 0 -6 -7 -4 -17 3 -12 11 -17 11 -20 2 -4 -10 -7 -10 -18 0
-7 7 -11 15 -9 19 2 3 -49 6 -113 6 -83 0 -120 -4 -130 -13 -22 -22 -15 -28
12 -11 32 21 47 21 17 0 -18 -12 -21 -19 -11 -30 6 -7 15 -11 20 -8 5 3 9 -2
9 -10 0 -18 -2 -19 -24 -10 -9 3 -16 13 -16 21 0 8 -4 12 -9 8 -6 -3 -15 3
-21 14 -8 16 -6 22 7 30 15 9 14 10 -11 11 -16 0 -26 -3 -23 -7 4 -3 1 -13 -6
-21 -6 -9 -7 -14 -2 -11 6 3 26 -10 45 -28 24 -23 29 -33 18 -33 -9 0 -18 6
-21 13 -2 6 -8 8 -13 4 -5 -4 -2 -12 5 -16 8 -5 9 -11 3 -15 -6 -3 -12 -1 -14
6 -3 7 -7 5 -11 -6 -8 -19 -3 -19 48 -1 16 5 17 5 5 -4 -12 -8 -12 -13 -2 -23
14 -14 16 -58 3 -58 -6 0 -13 5 -17 11 -4 8 -9 7 -15 -2 -6 -10 -8 -7 -6 8 1
18 4 20 20 11 15 -8 18 -6 15 8 -2 15 -14 19 -55 20 -40 1 -49 -1 -40 -11 7
-7 17 -10 22 -7 6 3 4 -2 -4 -11 -14 -18 -22 -22 -20 -9 3 19 -2 25 -11 12 -7
-10 -10 16 -10 83 l0 97 1540 0 1540 0 0 -332z m-2865 302 c3 -5 -1 -10 -9
-10 -9 0 -16 5 -16 10 0 6 4 10 9 10 6 0 13 -4 16 -10z m109 -17 c5 -17 3 -29
-6 -35 -10 -7 -10 -9 2 -5 8 2 16 13 18 25 2 12 7 22 12 22 4 0 7 -8 5 -17 -2
-10 -4 -18 -5 -18 -7 0 -7 -42 0 -50 5 -6 2 -18 -7 -30 -15 -20 -15 -20 -10 3
3 12 1 22 -4 22 -4 0 -6 7 -3 15 6 15 -11 22 -19 8 -2 -5 -2 -2 -1 5 2 6 -2
12 -9 12 -7 0 -4 5 6 11 9 5 17 15 17 21 0 7 -5 6 -15 -2 -8 -7 -22 -9 -31 -6
-9 4 -22 2 -29 -4 -17 -14 -14 15 3 32 9 9 13 8 17 -4 4 -10 14 -14 26 -11 12
3 18 11 15 19 -3 8 -2 14 3 14 5 0 12 -12 15 -27z m157 7 c6 0 7 4 4 10 -3 6
1 7 9 4 14 -5 14 -8 1 -21 -17 -17 -35 -9 -34 15 0 11 3 12 6 5 2 -7 9 -13 14
-13z m166 13 c-4 -3 -3 -11 3 -17 5 -7 5 -18 1 -25 -6 -9 -11 -10 -15 -2 -4 6
-1 11 6 11 7 0 5 5 -6 11 -15 9 -16 13 -5 20 17 10 25 12 16 2z m71 -15 c-7
-13 -11 -27 -9 -33 1 -5 -1 -7 -5 -3 -4 5 -14 -1 -21 -12 -14 -20 -39 -19 -27
1 3 5 9 7 14 4 9 -5 26 33 22 48 -1 5 2 6 7 3 5 -4 12 -2 16 4 12 20 15 9 3
-12z m46 7 c3 -8 10 -15 16 -15 6 0 9 4 5 9 -3 5 0 13 6 17 8 4 9 3 5 -4 -4
-7 -3 -12 3 -12 5 0 11 6 14 13 2 6 7 9 11 6 4 -4 0 -13 -8 -22 -8 -8 -12 -18
-8 -21 9 -10 -30 5 -45 16 -7 6 -17 7 -22 3 -7 -3 -8 0 -5 9 8 20 20 20 28 1z
m278 -7 c29 -14 39 -32 13 -22 -19 8 -10 -25 13 -43 12 -10 10 -11 -12 -9 -25
3 -50 16 -29 16 5 0 10 7 10 15 0 8 -7 15 -15 15 -11 0 -12 3 -3 14 9 11 7 15
-9 19 -17 4 -19 1 -14 -19 4 -14 2 -24 -4 -24 -6 0 -9 -8 -7 -17 2 -10 4 -20
4 -23 1 -3 6 2 11 10 6 9 10 10 10 3 0 -17 -17 -25 -25 -13 -5 8 -12 7 -23 -2
-14 -10 -15 -10 -5 2 9 10 10 17 2 27 -11 13 -10 14 14 17 6 1 12 10 13 21 2
42 -1 41 56 13z m533 12 c3 -5 1 -10 -4 -10 -6 0 -11 5 -11 10 0 6 2 10 4 10
3 0 8 -4 11 -10z m222 4 c-3 -3 -12 -4 -19 -1 -8 3 -5 6 6 6 11 1 17 -2 13 -5z
m24 -17 c-10 -9 -11 -8 -5 6 3 10 9 15 12 12 3 -3 0 -11 -7 -18z m274 13 c-3
-5 -2 -10 4 -10 5 0 13 5 16 10 14 22 21 7 21 -45 0 -31 -2 -52 -5 -47 -3 4
-12 7 -18 6 -7 -1 -20 -2 -29 -3 -8 0 -12 -6 -9 -11 4 -6 12 -7 18 -4 7 4 9 4
5 -1 -4 -4 0 -14 10 -21 27 -21 37 -16 16 9 l-19 22 22 -19 c12 -10 29 -16 38
-12 9 3 13 2 10 -4 -3 -6 -1 -10 4 -10 6 0 11 -5 11 -12 0 -9 -3 -9 -12 0 -20
20 -36 14 -30 -13 4 -25 25 -34 37 -15 3 6 14 10 23 10 10 0 4 -7 -15 -16 -24
-12 -31 -21 -27 -37 2 -12 8 -23 14 -25 5 -2 7 -15 4 -28 -4 -15 -2 -24 6 -24
6 0 9 -3 7 -7 -3 -5 0 -19 6 -33 5 -14 9 -33 8 -44 -2 -10 2 -16 7 -12 5 3 8
19 7 36 -3 36 7 31 12 -5 2 -13 -1 -26 -7 -30 -5 -3 -10 -13 -10 -21 0 -8 4
-13 9 -10 4 3 6 -5 4 -17 -4 -27 13 -57 25 -41 5 8 11 7 22 -4 8 -9 14 -19 13
-22 -2 -3 2 -7 7 -8 6 -2 7 3 4 12 -7 19 18 47 35 37 12 -8 11 -45 -2 -57 -4
-4 -7 -14 -7 -22 0 -11 3 -12 13 -4 10 8 13 6 13 -9 0 -26 -11 -24 -33 6 -11
16 -29 25 -50 27 l-31 2 -52 181 c-29 99 -59 188 -68 198 -13 15 -37 17 -223
17 -218 0 -207 2 -244 -43 -5 -7 -11 -21 -12 -32 -1 -11 -16 -70 -34 -132 -25
-89 -34 -109 -44 -100 -11 10 -10 13 1 15 16 4 19 28 5 37 -6 3 -14 -3 -20
-12 -8 -14 -10 -15 -11 -3 0 13 -2 13 -11 0 -9 -12 -10 -12 -5 3 3 10 6 25 6
33 0 9 7 14 18 12 10 -2 16 2 14 10 -2 10 2 10 17 3 15 -9 20 -7 25 12 8 30 7
39 -2 33 -4 -2 -9 4 -9 16 -1 13 3 18 12 14 9 -3 12 0 8 9 -3 8 -9 13 -13 10
-5 -3 -11 -1 -14 4 -7 11 13 9 32 -2 6 -5 12 -4 12 1 0 11 -24 33 -31 29 -3
-1 3 5 13 15 22 20 23 29 3 22 -11 -5 -13 -2 -9 10 3 9 10 14 14 11 5 -3 11
-1 15 5 3 6 -1 13 -10 16 -13 6 -14 8 -3 15 10 7 9 9 -3 9 -21 0 -33 30 -18
44 9 8 10 7 6 -6 -7 -20 18 -37 46 -32 17 2 17 1 3 -15 -9 -10 -13 -21 -10
-24 10 -10 45 34 37 46 -3 6 -1 7 6 3 6 -4 9 -12 5 -17 -4 -7 7 -9 27 -7 21 2
34 8 34 17 0 8 8 17 19 21 17 6 17 7 2 23 -16 16 -16 17 -1 17 12 0 15 5 11
17 -4 10 -4 14 1 10 10 -11 11 -97 1 -97 -5 0 -6 5 -3 10 3 6 0 10 -8 10 -7 0
-14 -6 -14 -14 0 -10 20 -14 78 -15 72 -2 78 0 84 20 4 12 10 17 14 12 3 -6
17 -9 29 -8 13 1 26 -3 28 -10 3 -6 23 -12 46 -14 37 -2 40 0 28 14 -8 9 -23
15 -35 13 -13 -3 -22 1 -22 8 0 7 6 10 14 7 7 -3 13 0 13 6 0 6 -6 11 -12 11
-7 0 -3 7 9 15 13 9 20 22 16 30 -3 11 -1 13 10 9 8 -3 18 -1 22 5 3 6 8 11
11 11 3 0 2 -4 -1 -10z m158 3 c-7 -2 -13 -12 -13 -20 0 -9 -3 -14 -6 -10 -10
10 4 37 18 36 10 0 10 -2 1 -6z m155 -18 c-3 -3 -9 2 -12 12 -6 14 -5 15 5 6
7 -7 10 -15 7 -18z m258 16 c-4 -5 -3 -11 1 -13 5 -3 4 -4 -2 -3 -5 1 -20 -2
-33 -6 -14 -5 -21 -5 -18 0 4 5 0 12 -6 15 -7 3 -1 4 15 2 15 -2 30 1 33 5 3
5 7 9 10 9 3 0 3 -4 0 -9z m114 -1 c0 -5 -4 -10 -9 -10 -6 0 -13 5 -16 10 -3
6 1 10 9 10 9 0 16 -4 16 -10z m80 -17 c0 -8 5 -11 13 -7 9 6 9 4 0 -6 -11
-12 -15 -11 -28 6 -19 25 -19 35 0 28 8 -4 15 -13 15 -21z m45 18 c3 -5 2 -12
-3 -15 -5 -3 -9 1 -9 9 0 17 3 19 12 6z m-2227 -26 c-3 -3 -9 2 -12 12 -6 14
-5 15 5 6 7 -7 10 -15 7 -18z m164 3 c-7 -7 -12 -8 -12 -2 0 14 12 26 19 19 2
-3 -1 -11 -7 -17z m73 12 c-14 -6 -15 -9 -5 -10 12 0 11 -3 -3 -11 -9 -6 -14
-16 -11 -22 4 -7 3 -8 -1 -4 -25 22 -9 57 25 56 10 0 8 -3 -5 -9z m38 -28
c-33 -30 -49 -25 -18 5 17 16 32 25 34 20 2 -5 -5 -16 -16 -25z m222 29 c3 -6
13 -8 23 -6 12 2 18 -3 19 -16 1 -10 -2 -19 -8 -19 -5 0 -9 -5 -9 -11 0 -5 5
-7 10 -4 6 3 10 -2 10 -12 0 -15 2 -15 9 -3 6 8 7 18 5 22 -3 4 2 8 11 8 14 0
14 -2 0 -24 -16 -23 -15 -25 7 -29 17 -4 15 -5 -7 -4 -20 1 -29 -3 -27 -11 1
-8 -2 -11 -8 -7 -5 3 -10 -1 -10 -10 0 -11 -5 -15 -14 -12 -8 3 -17 3 -21 -1
-11 -12 59 -30 78 -20 26 13 20 3 -9 -17 -15 -9 -23 -12 -20 -6 4 6 0 11 -9
11 -9 0 -14 -4 -10 -9 3 -5 1 -12 -5 -16 -6 -4 -8 -10 -5 -15 2 -4 -9 -7 -25
-6 -37 1 -37 3 -2 18 28 13 28 13 9 31 -18 18 -19 18 -13 0 5 -15 0 -23 -19
-31 -15 -7 -24 -8 -20 -2 3 5 1 11 -4 11 -26 3 -30 4 -36 11 -7 6 24 5 55 -3
10 -3 14 2 12 14 -3 19 27 49 40 41 5 -3 8 0 8 7 0 6 7 17 17 24 11 8 13 14 5
19 -7 4 -12 2 -12 -4 0 -6 -4 -9 -9 -6 -5 3 -5 21 -1 40 7 34 0 40 -27 23 -6
-4 -15 -3 -18 3 -4 6 -3 10 2 9 20 -3 27 2 13 11 -9 6 -10 10 -3 10 6 0 14 -4
18 -9z m115 -10 c0 -5 -12 -6 -27 -3 -24 5 -25 6 -8 12 21 8 35 4 35 -9z m346
-6 c3 -17 -12 -20 -21 -5 -7 12 4 34 13 25 3 -3 7 -12 8 -20z m364 3 c0 -5 5
-6 10 -3 6 4 8 11 5 16 -3 5 1 6 10 3 13 -6 11 -10 -12 -25 -26 -17 -28 -18
-35 -1 -4 11 -7 12 -7 3 -1 -8 -3 -12 -6 -9 -3 3 -3 12 1 21 6 16 34 12 34 -5z
m220 11 c0 -5 -4 -7 -10 -4 -5 3 -10 -1 -10 -9 0 -9 5 -16 10 -16 6 0 10 -7
10 -15 0 -8 -5 -14 -11 -12 -6 1 -13 -6 -14 -16 -5 -25 -8 -28 -25 -17 -13 8
-12 10 3 10 15 0 16 2 5 14 -7 8 -17 11 -22 8 -5 -3 -6 0 -2 7 6 9 11 9 22 0
15 -12 17 -8 14 34 -1 19 3 27 14 27 9 0 16 -5 16 -11z m75 -7 c-3 -3 -11 0
-18 7 -9 10 -8 11 6 5 10 -3 15 -9 12 -12z m219 2 c4 -9 4 -19 1 -22 -3 -3 -5
0 -5 6 0 6 -6 10 -12 8 -7 -1 -9 -1 -4 2 4 2 2 8 -5 13 -11 7 -11 9 2 9 9 0
20 -7 23 -16z m54 4 c-2 -6 -8 -12 -14 -13 -5 -1 -6 0 -1 3 4 2 5 8 1 13 -3 5
0 9 6 9 7 0 10 -5 8 -12z m176 6 c9 -3 13 -11 9 -17 -4 -6 0 -8 9 -5 11 5 14
0 10 -18 -2 -13 -8 -26 -12 -29 -5 -3 -6 5 -2 17 4 16 2 19 -8 13 -8 -5 -11
-4 -7 2 4 6 0 16 -8 23 -12 10 -15 9 -15 -8 0 -12 -6 -24 -12 -28 -7 -4 -10
-4 -6 1 4 4 2 15 -5 23 -8 10 -8 13 -1 9 7 -4 14 0 18 8 6 17 8 17 30 9z
m-2559 -16 c5 4 5 1 1 -5 -4 -7 -3 -13 3 -13 5 0 11 5 13 12 3 7 7 5 11 -6 4
-10 3 -15 -3 -11 -6 3 -10 2 -10 -4 0 -5 5 -13 10 -16 6 -3 10 -12 10 -18 0
-7 -5 -4 -11 6 -5 9 -17 17 -25 17 -8 0 -12 5 -9 10 3 6 -1 13 -9 16 -9 3 -16
11 -16 16 0 7 5 6 13 -1 8 -6 18 -7 22 -3z m391 3 c-4 -5 -3 -11 1 -13 5 -3 4
-4 -2 -3 -5 1 -15 -5 -21 -13 -9 -13 -12 -13 -19 -1 -5 8 -5 11 0 7 5 -5 14 1
22 12 14 20 30 29 19 11z m851 3 c-3 -3 -12 -4 -19 -1 -8 3 -5 6 6 6 11 1 17
-2 13 -5z m275 -17 c9 -3 19 0 22 8 3 8 14 13 25 12 25 -2 25 -1 4 -18 -11
-10 -14 -10 -9 -1 4 6 2 12 -3 12 -6 0 -11 -4 -11 -8 0 -5 -7 -17 -15 -28 -13
-16 -14 -16 -9 -1 4 11 1 17 -10 18 -30 3 -34 4 -43 13 -5 5 -3 6 5 2 7 -4 12
-2 12 6 0 9 3 9 8 2 4 -6 15 -13 24 -17z m688 2 c0 -5 -7 -9 -15 -9 -9 0 -12
-6 -8 -17 5 -14 3 -15 -6 -7 -10 9 -10 17 -1 33 10 20 30 21 30 0z m563 -4
c-8 -22 -22 -18 -16 5 3 11 9 17 14 15 4 -3 6 -12 2 -20z m-2548 -5 c-3 -5
-13 -6 -21 -3 -12 4 -13 8 -3 14 15 9 32 2 24 -11z m134 17 c-2 -2 -11 -8 -20
-15 -12 -9 -16 -9 -16 1 0 7 9 14 20 14 11 1 18 1 16 0z m1737 -20 c1 -9 -2
-15 -7 -11 -5 3 -7 9 -4 14 3 4 2 10 -2 12 -5 3 -4 4 1 3 5 0 10 -9 12 -18z
m389 -8 c-16 -4 -26 -7 -21 -8 5 0 3 -8 -4 -16 -13 -16 -30 -11 -30 8 0 7 4 6
10 -3 5 -8 10 -12 10 -7 0 4 -1 8 -2 10 -1 1 4 12 11 25 10 19 15 21 34 10 22
-12 22 -12 -8 -19z m260 23 c-24 -17 -13 -38 18 -33 12 2 8 -27 -5 -35 -7 -4
-8 -3 -4 4 4 7 -3 17 -19 24 -18 8 -22 14 -13 20 10 6 10 8 -2 8 -13 0 -13 1
0 10 18 12 40 14 25 2z m-2179 -14 c4 -7 3 -8 -4 -4 -7 4 -12 2 -12 -5 0 -7
-3 -10 -6 -6 -6 5 3 27 11 27 2 0 7 -5 11 -12z m617 -4 c-2 -7 -13 -10 -24 -7
-10 3 -19 0 -19 -6 0 -6 6 -10 13 -8 7 1 12 -7 11 -20 -1 -13 2 -23 7 -23 15
0 48 33 43 42 -3 4 -1 8 4 8 20 0 20 -30 1 -52 -17 -20 -18 -21 -12 -3 5 16 4
18 -8 9 -8 -6 -23 -14 -35 -18 -17 -5 -20 -2 -19 16 2 24 -11 48 -27 48 -5 0
-6 -4 -3 -10 3 -5 0 -10 -7 -10 -8 0 -14 10 -15 23 0 12 1 17 3 11 5 -13 44
-7 44 6 0 4 11 7 24 6 13 0 22 -6 19 -12z m105 1 c4 -4 -3 -4 -15 -1 -17 5
-21 3 -18 -11 2 -10 4 -20 4 -23 1 -3 6 2 11 10 8 13 10 13 10 -2 0 -35 -27
-26 -34 12 -1 3 -5 10 -9 17 -8 13 38 11 51 -2z m42 7 c0 -5 -7 -9 -15 -9 -8
0 -12 4 -9 9 3 4 9 8 15 8 5 0 9 -4 9 -8z m820 -7 c9 -10 9 -15 1 -15 -6 0
-11 5 -11 11 0 5 -4 7 -10 4 -5 -3 -10 -1 -10 4 0 16 16 13 30 -4z m-1860 -9
c-7 -7 -14 -6 -21 1 -9 9 -7 12 9 10 14 -1 18 -5 12 -11z m157 -5 c10 -15 9
-22 -2 -31 -8 -7 -15 -17 -15 -22 0 -13 183 -7 192 6 5 8 8 7 8 -1 0 -7 20
-11 53 -11 28 0 46 2 40 5 -7 3 -13 9 -13 15 0 6 11 3 25 -6 14 -9 25 -13 26
-9 1 5 4 -3 8 -17 4 -14 14 -24 21 -22 9 2 11 -5 6 -25 -4 -15 -3 -23 1 -18 4
6 15 11 23 12 9 2 6 -4 -7 -13 -24 -17 -30 -48 -13 -59 6 -3 10 -12 10 -18 0
-7 -4 -6 -10 3 -6 10 -9 -33 -9 -125 1 -85 4 -132 9 -120 8 19 9 19 9 -2 1
-13 -3 -23 -8 -23 -5 0 -10 -36 -10 -81 -1 -58 2 -78 11 -73 7 4 8 3 4 -4 -22
-36 -26 6 -26 256 0 226 -2 271 -16 290 -15 21 -20 22 -209 22 l-194 0 -20
-26 c-20 -25 -21 -39 -21 -247 0 -121 -2 -218 -5 -216 -2 3 -5 87 -5 187 -1
100 -6 184 -11 187 -14 9 -11 27 4 19 6 -4 4 1 -5 11 -15 16 -18 16 -32 2 -9
-8 -16 -20 -16 -26 0 -6 -4 -11 -9 -11 -4 0 -8 10 -7 23 1 12 7 21 14 20 7 -2
12 2 12 7 0 6 7 10 15 10 19 0 19 21 0 46 -26 34 -16 36 15 2 29 -32 31 -32
36 -11 6 21 30 33 72 33 23 0 30 14 11 26 -8 4 -7 9 2 15 12 7 11 9 -1 10 -8
1 -19 1 -23 0 -5 -1 -6 3 -2 9 4 7 12 7 25 0 27 -14 34 -12 20 5 -7 8 -8 15
-4 15 5 0 15 -9 21 -19z m203 -18 c-11 -17 -11 -17 -6 0 3 10 6 24 7 30 0 9 2
9 5 0 3 -7 0 -20 -6 -30z m297 2 c-18 -17 -37 -20 -37 -4 0 5 5 7 10 4 6 -3
10 1 10 10 0 9 5 13 10 10 6 -3 10 0 11 7 0 10 2 10 6 1 2 -7 -2 -20 -10 -28z
m44 1 c-6 -14 -13 -26 -16 -26 -9 0 0 45 10 52 15 11 16 3 6 -26z m655 19 c-3
-8 -1 -15 3 -15 5 0 7 -9 4 -20 -4 -16 -9 -18 -19 -9 -10 8 -10 16 -2 35 12
26 24 34 14 9z m581 2 c0 -8 -6 -14 -14 -14 -9 0 -10 4 -2 14 6 7 12 13 14 13
1 0 2 -6 2 -13z m-2122 -26 c-3 -2 -11 1 -18 7 -8 7 -18 8 -22 4 -5 -4 -5 -1
-1 5 5 10 11 10 26 1 11 -7 17 -14 15 -17z m161 14 c16 -8 29 -20 29 -27 0 -7
11 -12 25 -12 23 2 23 1 5 -12 -22 -16 -39 -18 -30 -4 3 6 1 10 -4 10 -6 0
-11 7 -11 16 0 8 -5 12 -10 9 -12 -7 -40 12 -40 26 0 12 3 11 36 -6z m345 -9
c-6 -7 -9 -15 -7 -17 2 -2 -6 -4 -18 -4 -18 0 -22 4 -18 20 3 11 7 14 9 8 3
-7 11 -9 19 -6 7 3 11 10 7 16 -3 6 -1 7 6 3 8 -6 9 -12 2 -20z m580 1 c-10
-9 -11 -8 -5 6 3 10 9 15 12 12 3 -3 0 -11 -7 -18z m289 19 c0 -2 3 -11 6 -20
4 -11 1 -16 -10 -16 -9 0 -16 5 -16 11 0 5 5 7 12 3 7 -5 8 -3 4 5 -5 7 -15
10 -23 7 -8 -3 -11 -1 -8 4 6 10 35 14 35 6z m330 -8 c0 6 5 12 11 12 8 0 8
-4 0 -14 -7 -8 -20 -13 -29 -11 -9 2 -19 4 -22 4 -3 1 2 5 10 11 9 6 17 5 22
-3 6 -9 8 -9 8 1z m610 -19 c7 -12 7 -20 0 -24 -5 -3 -10 1 -10 11 0 9 -8 23
-17 30 -17 13 -17 14 0 8 10 -4 22 -15 27 -25z m274 16 c3 -8 1 -15 -4 -15 -6
0 -10 7 -10 15 0 8 2 15 4 15 2 0 6 -7 10 -15z m-2479 -16 c-4 -5 0 -9 7 -10
10 0 10 -2 0 -6 -6 -2 -10 -9 -6 -14 3 -5 2 -9 -3 -8 -29 5 -35 -2 -29 -38 5
-36 5 -37 -6 -9 -8 23 -7 34 6 57 10 16 14 29 11 29 -3 0 -3 5 0 10 4 6 11 8
16 4 5 -3 7 -10 4 -15z m492 6 c4 -4 2 -5 -4 -1 -7 4 -13 3 -13 -2 0 -5 -6 -9
-14 -9 -8 0 -12 6 -9 13 5 13 28 13 40 -1z m1920 -5 c-3 -11 -1 -22 4 -25 5
-4 8 -17 7 -30 -2 -16 -6 -21 -12 -15 -16 16 -22 12 -20 -17 1 -16 3 -37 4
-48 1 -19 2 -18 10 3 5 12 15 22 22 21 10 0 10 -2 1 -6 -20 -7 -15 -23 6 -23
14 0 18 7 17 25 -1 20 -5 23 -26 19 -24 -4 -24 -4 2 7 17 6 25 15 21 25 -4 10
0 12 13 7 13 -5 15 -3 9 7 -5 8 -4 11 3 6 13 -8 5 -36 -10 -36 -5 0 0 -12 11
-26 11 -14 18 -33 15 -42 -5 -16 -5 -16 8 0 13 15 15 15 25 -2 10 -15 9 -17
-9 -12 -18 4 -20 2 -15 -14 7 -18 6 -18 -6 -2 -8 10 -18 14 -22 10 -4 -4 -2 3
4 16 8 15 8 22 1 22 -6 0 -13 -7 -16 -15 -4 -10 -14 -13 -29 -9 -16 4 -26 0
-33 -13 -10 -17 -11 -17 -11 2 -1 45 -5 53 -20 48 -12 -3 -12 -2 2 7 9 6 17
17 17 25 0 10 -6 12 -17 8 -17 -6 -17 -6 0 11 10 10 24 15 33 12 12 -5 15 -2
9 11 -8 21 -8 22 -6 46 0 9 4 17 7 17 4 0 4 -9 1 -20z m-2277 0 c0 -5 -4 -10
-10 -10 -5 0 -10 5 -10 10 0 6 5 10 10 10 6 0 10 -4 10 -10z m390 0 c0 -5 -2
-10 -4 -10 -3 0 -8 5 -11 10 -3 6 -1 10 4 10 6 0 11 -4 11 -10z m586 -19 c10
-17 21 -28 26 -25 5 3 6 10 3 15 -4 5 -1 9 5 9 18 0 6 -24 -18 -35 -12 -5 -22
-18 -22 -29 0 -26 -8 -17 -12 14 -2 14 -8 31 -13 39 -6 10 -4 16 4 19 11 4 11
6 0 13 -9 6 -10 9 -2 9 6 0 20 -13 29 -29z m812 6 c15 2 21 -1 17 -8 -4 -6
-13 -8 -20 -5 -7 2 -16 -2 -19 -10 -5 -13 5 -19 27 -15 11 2 8 -17 -4 -25 -8
-4 -8 -9 0 -17 15 -15 14 -30 -1 -24 -7 2 -13 15 -13 28 0 22 -4 24 -42 24
-32 0 -39 3 -31 13 7 8 14 9 23 2 16 -13 38 11 29 33 -5 14 -11 13 -40 -9 -28
-22 -34 -24 -34 -10 0 10 5 14 10 11 6 -3 13 1 16 9 3 9 10 14 14 11 5 -3 12
0 16 6 5 9 10 8 18 -3 6 -8 21 -13 34 -11z m418 2 c1 -5 3 -11 4 -14 7 -14 5
-32 -7 -49 -10 -16 -10 -23 0 -35 10 -14 10 -14 -4 -4 -20 16 -28 8 -22 -18 5
-16 8 -18 14 -7 6 9 9 9 9 1 0 -6 -5 -15 -10 -18 -8 -5 -8 -11 -1 -19 8 -9 7
-13 -3 -13 -9 0 -14 10 -14 28 1 15 -6 39 -15 53 -16 24 -16 25 9 20 16 -3 23
-1 19 6 -3 5 0 13 8 16 18 7 15 40 -4 36 -9 -2 -10 0 -1 11 7 8 10 16 8 19 -2
3 -1 3 3 1 3 -3 7 -9 7 -14z m-2576 7 c0 -3 -4 -8 -10 -11 -5 -3 -10 -1 -10 4
0 6 5 11 10 11 6 0 10 -2 10 -4z m96 -4 c23 -16 24 -42 1 -52 -22 -11 -22 -11
-2 6 20 16 20 16 -6 12 -17 -3 -26 0 -26 9 0 9 8 11 21 8 21 -6 21 -6 2 9 -20
16 -11 23 10 8z m2114 4 c0 -3 -4 -8 -10 -11 -5 -3 -10 -1 -10 4 0 6 5 11 10
11 6 0 10 -2 10 -4z m74 -11 c-6 -16 -24 -21 -24 -7 0 11 11 22 21 22 5 0 6
-7 3 -15z m-1714 -2 c0 -5 -11 -8 -24 -8 -13 0 -22 3 -19 8 2 4 13 7 24 7 10
0 19 -3 19 -7z m327 -10 c-10 -9 -56 -10 -51 -1 3 5 12 7 20 4 8 -3 14 -1 14
5 0 6 5 7 11 4 6 -4 8 -9 6 -12z m80 2 c0 -10 -9 -13 -29 -11 -16 2 -32 7 -36
11 -4 4 2 5 13 1 11 -3 27 -1 35 4 8 5 15 10 16 10 0 0 1 -7 1 -15z m1763 0
c0 -8 -5 -15 -11 -15 -5 0 -8 4 -5 9 4 5 0 12 -6 14 -8 3 -6 6 5 6 9 1 17 -6
17 -14z m-2693 -14 c-3 -13 1 -22 12 -25 11 -3 10 -4 -4 -3 -11 1 -26 -2 -34
-7 -10 -6 -12 -5 -7 2 4 7 1 12 -9 12 -11 0 -15 -5 -11 -16 3 -9 2 -12 -5 -9
-6 4 -8 13 -5 20 2 7 0 17 -5 22 -5 5 -1 9 10 9 11 0 17 -4 15 -8 -3 -4 0 -8
5 -8 6 0 11 6 11 13 0 8 4 7 10 -3 8 -13 10 -12 10 3 0 9 3 17 6 17 4 0 4 -9
1 -19z m776 -14 c-3 -5 -10 -4 -15 1 -6 6 -7 16 -3 22 6 9 9 9 16 -1 4 -7 5
-17 2 -22z m487 3 c0 -4 -7 -13 -16 -20 -8 -8 -14 -9 -12 -4 1 5 -3 19 -10 31
-12 22 -12 22 13 11 14 -6 25 -14 25 -18z m913 13 c-6 -16 -5 -17 13 -3 17 14
18 13 7 -1 -14 -17 -8 -29 10 -25 7 2 9 1 5 -1 -16 -9 -7 -23 13 -23 16 0 19
4 14 21 -6 19 -5 20 8 8 8 -8 13 -16 11 -18 -7 -7 18 -31 26 -26 10 6 7 -15
-4 -33 -4 -7 -2 -19 5 -28 12 -14 14 -14 20 3 7 16 8 16 8 1 1 -9 -4 -20 -10
-23 -13 -9 -40 26 -34 44 3 8 0 11 -8 8 -8 -3 -14 1 -14 8 0 8 7 11 15 7 10
-3 13 -1 8 6 -9 15 -52 16 -61 2 -4 -6 -11 -8 -16 -4 -6 3 -8 -4 -6 -18 2 -12
2 -17 0 -10 -3 6 -9 12 -14 12 -5 0 -8 3 -8 8 4 21 -2 36 -9 26 -5 -9 -11 -8
-20 2 -8 9 -9 14 -2 14 6 0 8 5 5 10 -3 6 -1 10 5 10 7 0 10 -7 6 -17 -5 -15
-4 -15 9 1 10 14 12 23 4 32 -9 11 -6 14 18 23 1 1 -1 -7 -4 -16z m92 7 c3 -5
1 -10 -4 -10 -6 0 -11 5 -11 10 0 6 2 10 4 10 3 0 8 -4 11 -10z m166 1 c-8 -5
-12 -18 -8 -30 3 -12 1 -19 -4 -15 -5 3 -9 0 -9 -5 0 -6 6 -11 13 -11 8 0 7
-3 -3 -10 -10 -6 -17 -5 -23 6 -12 22 -47 -1 -47 -31 0 -14 -4 -25 -10 -25 -5
0 -10 -5 -10 -11 0 -5 5 -7 12 -3 7 4 8 3 4 -5 -4 -6 -12 -9 -17 -6 -13 9 -11
33 4 38 8 3 6 10 -8 21 -16 13 -17 15 -3 10 11 -4 20 0 24 9 3 9 19 19 35 22
16 4 29 11 29 15 0 5 -8 7 -17 4 -12 -4 -9 1 7 15 14 11 30 21 35 21 6 0 4 -4
-4 -9z m-1481 -16 c-7 -8 -20 -15 -29 -15 -11 0 -8 5 9 14 33 19 35 19 20 1z
m1540 5 c18 -11 7 -23 -26 -27 -23 -3 -24 -2 -14 17 12 22 18 24 40 10z
m-1639 -23 c-10 -9 -11 -8 -5 6 3 10 9 15 12 12 3 -3 0 -11 -7 -18z m-731 -13
c0 -2 -8 0 -19 5 -10 6 -22 7 -26 3 -5 -4 -5 -1 -1 6 5 9 12 9 27 2 10 -6 19
-13 19 -16z m705 8 c-3 -3 -11 0 -18 7 -9 10 -8 11 6 5 10 -3 15 -9 12 -12z
m547 3 c3 0 10 -4 15 -9 5 -5 3 -6 -4 -2 -12 6 -19 -17 -14 -46 0 -4 -10 -2
-24 4 -18 8 -22 15 -15 23 5 7 7 15 3 18 -3 4 -1 7 6 7 7 0 9 5 5 12 -5 7 -3
8 7 2 8 -5 17 -9 21 -9z m922 0 c-4 -8 -8 -15 -10 -15 -2 0 -4 7 -4 15 0 8 4
15 10 15 5 0 7 -7 4 -15z m-2084 -15 c-20 -20 -47 -19 -34 1 3 5 10 7 15 4 5
-4 9 -1 9 4 0 6 7 11 15 11 12 0 10 -5 -5 -20z m880 7 c0 -5 7 -3 16 4 14 12
20 9 40 -16 28 -35 29 -44 10 -51 -11 -4 -13 -12 -6 -30 6 -15 6 -24 0 -24 -6
0 -10 9 -10 21 0 19 -1 19 -17 4 -13 -14 -14 -18 -2 -25 7 -5 10 -12 6 -17 -5
-4 -13 -1 -18 7 -8 12 -9 10 -4 -7 3 -12 1 -25 -6 -29 -8 -4 -9 -3 -5 4 4 7 2
12 -3 12 -6 0 -11 -5 -11 -11 0 -5 -5 -7 -11 -4 -7 5 -3 14 11 27 12 11 19 27
16 35 -3 8 -2 12 3 9 4 -3 19 6 32 20 24 25 24 26 5 40 -13 9 -15 14 -6 14 11
0 12 2 1 13 -10 10 -15 8 -27 -8 -14 -18 -13 -21 8 -27 13 -3 17 -6 11 -7 -7
-1 -12 -6 -10 -12 1 -6 -5 -14 -13 -16 -12 -3 -12 -2 -2 5 10 7 10 11 -2 21
-12 10 -15 9 -19 -6 -4 -16 -5 -16 -6 -1 0 9 4 20 9 23 15 9 12 25 -5 25 -8 0
-15 4 -15 8 0 5 7 9 15 9 8 0 15 -5 15 -10z m93 -2 c-3 -9 -8 -14 -10 -11 -3
3 -2 9 2 15 9 16 15 13 8 -4z m-1331 -7 c-23 -23 -18 -26 44 -29 19 -1 22 -4
13 -10 -8 -5 -9 -9 -3 -9 6 0 11 -7 11 -15 0 -8 -4 -15 -9 -15 -5 0 -4 -9 2
-19 14 -28 12 -44 -4 -38 -8 3 -16 1 -19 -6 -2 -6 -6 -3 -10 7 -6 15 -3 17 14
13 16 -4 19 -2 13 11 -4 9 -7 28 -8 42 -1 15 -8 26 -18 28 -18 3 -23 -15 -19
-60 2 -12 -3 -16 -13 -12 -9 3 -13 10 -10 15 3 5 1 9 -5 9 -5 0 -11 -4 -13
-10 -2 -6 -8 -6 -18 0 -13 8 -12 10 3 10 14 0 16 5 11 25 -4 17 -2 25 7 25 7
0 9 3 6 7 -7 6 20 43 32 43 3 0 0 -5 -7 -12z m962 -4 c9 -8 16 -21 16 -27 0
-7 -5 -4 -11 5 -5 10 -17 22 -27 27 -9 6 -12 11 -5 11 6 0 19 -7 27 -16z m106
6 c0 -5 -5 -10 -11 -10 -5 0 -7 5 -4 10 3 6 8 10 11 10 2 0 4 -4 4 -10z m304
-19 c-4 -3 -9 0 -11 7 -3 6 -10 9 -15 6 -7 -4 -8 -2 -4 5 6 9 11 9 22 0 8 -6
12 -15 8 -18z m83 -3 c-3 -7 -5 -2 -5 12 0 14 2 19 5 13 2 -7 2 -19 0 -25z
m757 15 c-8 -8 -11 -20 -7 -26 3 -7 2 -8 -3 -4 -5 5 -9 12 -9 15 0 4 -4 12 -7
18 -5 7 1 12 17 12 21 0 22 -2 9 -15z m-2034 0 c0 -5 -5 -15 -11 -23 -9 -13
-10 -13 -6 2 3 9 1 19 -6 22 -7 2 -4 5 6 5 9 1 17 -2 17 -6z m27 0 c-4 -3 -2
-12 5 -20 9 -11 7 -12 -8 -6 -17 6 -17 5 -5 -10 12 -15 12 -17 -3 -11 -15 6
-15 3 -5 -20 11 -24 7 -47 -6 -34 -20 19 -1 108 22 108 3 0 3 -3 0 -7z m41 -6
c14 4 14 3 2 -5 -16 -12 -30 -7 -29 11 0 9 2 9 5 0 3 -7 13 -9 22 -6z m1169
-9 c-3 -8 -6 -5 -6 6 -1 11 2 17 5 13 3 -3 4 -12 1 -19z m-1470 -25 c-3 -10
-5 -4 -5 12 0 17 2 24 5 18 2 -7 2 -21 0 -30z m2661 12 c-3 -3 -9 2 -12 12 -6
14 -5 15 5 6 7 -7 10 -15 7 -18z m-2458 -10 c14 -19 14 -19 -2 -6 -10 7 -18
18 -18 24 0 6 1 8 3 6 1 -2 9 -13 17 -24z m2027 13 c-2 -7 4 -18 14 -23 13 -7
15 -14 9 -25 -9 -13 -10 -13 -10 0 0 9 -9 16 -19 16 -11 0 -17 -4 -15 -8 3 -4
0 -8 -5 -8 -15 0 -14 8 7 35 19 27 26 31 19 13z m-1880 -14 c4 -5 4 -6 -1 -2
-5 4 -14 3 -21 -2 -8 -7 -12 -5 -12 4 0 15 22 15 34 0z m1063 -4 c-7 -14 -7
-20 0 -20 5 0 10 -5 10 -11 0 -5 -4 -8 -9 -5 -5 3 -11 -1 -14 -9 -7 -16 22
-29 47 -19 17 7 19 4 10 -19 -3 -9 -14 -12 -30 -9 -20 4 -23 1 -18 -13 6 -15
4 -16 -14 -6 -11 6 -24 16 -27 21 -4 6 -11 8 -16 5 -5 -4 -9 -1 -9 4 0 16 16
13 30 -4 10 -12 16 -13 27 -3 12 10 12 13 -1 20 -13 7 -14 14 -6 29 6 10 8 19
5 19 -3 0 -1 9 5 20 6 11 13 20 16 20 2 0 0 -9 -6 -20z m32 -5 c-2 -14 -6 -25
-8 -25 -2 0 -4 11 -4 25 0 14 4 25 9 25 4 0 6 -11 3 -25z m48 15 c0 -5 -5 -10
-11 -10 -5 0 -7 5 -4 10 3 6 8 10 11 10 2 0 4 -4 4 -10z m-1330 -6 c0 -8 -19
-13 -24 -6 -3 5 1 9 9 9 8 0 15 -2 15 -3z m720 -387 c0 -292 3 -396 12 -405 8
-8 67 -12 200 -12 l188 0 0 -120 0 -120 -360 0 -360 0 0 525 0 525 160 0 160
0 0 -393z m372 363 c-4 -3 -9 -8 -13 -13 -3 -4 -14 3 -24 15 -11 13 -13 17 -5
11 21 -19 35 -16 19 4 -13 15 -12 15 8 2 12 -7 19 -16 15 -19z m283 19 c9 -13
2 -19 -22 -24 -10 -2 -20 -4 -22 -4 -2 -1 2 -8 9 -16 14 -17 6 -50 -10 -40 -5
3 -10 12 -10 18 0 7 4 6 10 -3 8 -13 10 -13 10 1 0 18 -26 33 -41 23 -5 -3 -9
0 -9 5 0 6 9 11 20 11 11 0 20 5 20 11 0 6 7 9 14 6 10 -4 13 -1 9 9 -6 16 13
19 22 3z m539 -6 c3 -10 55 -193 116 -408 61 -214 125 -435 141 -490 17 -55
33 -108 35 -117 5 -17 -6 -18 -139 -18 l-145 0 -7 28 c-3 15 -13 51 -21 80
l-16 53 -151 -3 -151 -3 -24 -77 -23 -78 -140 0 c-76 0 -139 4 -139 8 0 4 22
82 49 172 26 91 93 324 147 517 l99 353 182 0 c164 0 182 -2 187 -17z m276 1
c0 -8 -5 -12 -10 -9 -6 4 -8 11 -5 16 9 14 15 11 15 -7z m275 -5 c-4 -5 -12
-9 -18 -8 -9 0 -8 2 1 6 6 2 9 10 6 15 -4 7 -2 8 5 4 6 -4 9 -12 6 -17z
m-2423 -34 c-3 -5 -7 -4 -10 3 -2 7 -7 10 -11 8 -4 -3 -8 5 -8 16 -2 20 -1 20
16 2 10 -11 16 -23 13 -29z m82 30 c-4 -8 -11 -15 -16 -15 -6 0 -5 6 2 15 7 8
14 15 16 15 2 0 1 -7 -2 -15z m103 -4 c-1 -15 -4 -17 -14 -9 -15 12 -17 22 -3
13 6 -3 10 -1 10 4 0 6 2 11 4 11 3 0 4 -9 3 -19z m643 11 c-23 -10 -25 -43
-3 -36 15 5 15 4 3 -4 -10 -8 -18 -8 -28 0 -11 9 -11 13 0 19 7 5 9 9 5 9 -5
0 -5 5 -2 10 3 6 14 10 23 9 14 0 15 -2 2 -7z m58 -10 c2 -7 9 -9 14 -6 7 5 8
2 3 -6 -6 -10 -11 -10 -20 3 -7 9 -14 14 -17 11 -4 -3 -9 -1 -12 4 -3 6 2 9
11 8 9 -2 19 -8 21 -14z m1238 -3 c3 -5 -2 -6 -10 -3 -9 3 -16 1 -16 -5 0 -8
-4 -8 -14 1 -8 7 -12 16 -10 20 5 8 43 -2 50 -13z m339 15 c10 -4 13 -9 6 -13
-7 -5 -6 -16 4 -34 13 -25 12 -26 -3 -19 -9 4 -29 7 -44 6 -26 -1 -26 0 -11
22 8 13 20 21 26 17 6 -4 8 0 4 10 -7 19 -6 20 18 11z m95 2 c0 -2 -7 -6 -15
-10 -8 -3 -15 -1 -15 4 0 6 7 10 15 10 8 0 15 -2 15 -4z m-393 -28 c-3 -8 -6
-5 -6 6 -1 11 2 17 5 13 3 -3 4 -12 1 -19z m-2210 -15 c0 -16 2 -35 5 -43 2
-8 3 -12 1 -7 -3 4 -12 7 -21 7 -15 0 -15 2 -2 10 8 5 10 10 4 10 -6 0 -10 10
-9 23 3 27 3 27 14 27 4 0 8 -12 8 -27z m1406 14 c3 -8 1 -20 -4 -28 -6 -10
-9 -7 -9 14 0 29 5 35 13 14z m1025 4 c11 -7 10 -9 -3 -14 -9 -4 -14 -3 -10 2
3 5 -1 12 -7 14 -7 3 -8 6 -3 6 6 0 16 -3 23 -8z m-2234 -13 c-3 -4 0 -8 7 -8
8 0 8 -4 -1 -15 -12 -15 -4 -21 23 -16 5 1 5 -4 1 -10 -5 -8 -2 -10 8 -7 8 4
15 1 15 -7 0 -15 -27 -8 -39 9 -5 6 -8 2 -8 -11 0 -17 -4 -20 -22 -15 -19 5
-20 7 -5 10 18 4 23 17 8 27 -6 3 -8 15 -6 26 4 19 1 21 -33 15 -27 -5 -33 -4
-22 4 17 11 81 10 74 -2z m918 -12 c7 4 8 2 4 -5 -4 -6 -12 -9 -17 -6 -5 4 -9
2 -9 -4 0 -6 -13 -17 -30 -26 -16 -9 -30 -20 -30 -26 0 -6 5 -7 10 -4 6 3 10
4 10 1 0 -3 -4 -7 -10 -11 -5 -3 -16 8 -25 25 -13 25 -19 29 -30 20 -9 -8 -15
-8 -20 0 -4 6 -1 9 7 8 7 -2 12 2 11 9 -4 20 26 3 32 -18 4 -11 11 -17 16 -13
6 3 5 12 -3 22 -11 13 -11 14 1 8 10 -7 12 -3 7 15 -3 13 -3 19 0 12 3 -7 13
-9 22 -6 13 4 14 3 4 -5 -11 -7 -11 -10 2 -15 11 -5 18 2 23 21 5 20 8 22 11
9 2 -9 8 -14 14 -11z m950 7 c-7 -13 -4 -23 8 -36 16 -16 18 -17 31 0 8 9 9
14 3 10 -7 -4 -18 1 -25 11 -13 15 -12 16 4 3 11 -9 17 -10 17 -2 0 6 13 10
30 9 17 -1 30 -6 30 -11 0 -5 -9 -7 -19 -4 -24 6 -35 -17 -16 -33 12 -10 12
-14 0 -26 -20 -20 -27 -17 -15 6 12 23 3 27 -14 5 -9 -12 -14 -11 -35 5 -13
11 -18 20 -11 20 7 0 5 6 -5 16 -14 15 -14 17 2 30 24 18 25 17 15 -3z m239
-11 c-6 -2 -9 -8 -6 -13 4 -5 -1 -6 -10 -2 -14 5 -14 8 -3 15 9 7 8 8 -7 5
-11 -2 -19 -8 -18 -14 2 -8 -15 -9 -60 -4 -5 1 -5 6 -1 12 3 6 9 7 13 3 11
-16 31 -14 43 5 10 16 15 17 36 8 13 -6 19 -13 13 -15z m369 13 c7 -8 16 -12
21 -9 5 3 9 0 9 -5 0 -16 -27 -13 -34 4 -3 9 -12 12 -22 8 -12 -4 -15 -3 -10
5 10 16 21 15 36 -3z m-2582 -31 c2 -1 -1 -11 -7 -23 -7 -13 -8 -22 -1 -26 5
-3 10 -1 10 5 0 7 7 10 15 6 11 -4 15 2 16 22 1 17 3 20 6 9 2 -9 8 -15 13
-12 5 3 7 -4 5 -15 -3 -15 2 -20 18 -21 12 0 16 -3 9 -6 -7 -3 -18 -3 -25 0
-23 9 -32 7 -33 -5 -1 -19 27 -48 39 -41 6 3 7 1 3 -6 -4 -6 -11 -9 -16 -6 -5
3 -10 0 -13 -7 -2 -7 -3 -5 -1 5 1 12 -2 17 -10 14 -8 -3 -12 3 -11 16 3 29
-6 42 -16 26 -7 -12 -9 -12 -9 0 0 9 -4 10 -12 3 -19 -14 -59 3 -52 23 3 8 10
15 14 15 4 0 11 12 14 26 6 22 9 24 24 13 9 -7 18 -14 20 -15z m196 -7 c7 -6
6 -7 -4 -4 -8 2 -16 12 -17 23 -2 13 -1 15 4 4 3 -8 11 -19 17 -23z m24 -11
c-3 -40 -5 -43 -19 -30 -9 8 -20 11 -25 7 -5 -5 -5 -4 -1 2 5 6 14 10 20 10 7
0 13 12 15 28 5 44 12 31 10 -17z m641 21 c0 -8 -2 -7 -6 1 -4 10 -11 5 -24
-15 -10 -15 -19 -23 -19 -18 0 6 7 21 16 33 15 22 35 22 33 -1z m453 -12 c3 3
8 -1 11 -10 8 -18 -14 -20 -32 -2 -11 10 -12 8 -7 -9 4 -14 2 -21 -8 -21 -9 0
-13 4 -10 9 3 4 0 8 -6 8 -7 0 -5 7 4 16 9 8 16 23 16 32 1 13 4 11 13 -6 7
-12 16 -20 19 -17z m1369 13 c9 -4 21 -2 27 4 8 8 9 4 5 -11 -4 -16 -9 -19
-16 -12 -19 19 -31 12 -13 -8 10 -11 15 -24 12 -30 -4 -5 -2 -13 4 -16 6 -4 9
-3 8 2 -4 17 14 53 28 53 8 0 14 -4 14 -10 0 -5 -5 -9 -11 -7 -6 1 -14 -4 -16
-11 -3 -7 1 -10 10 -7 7 3 20 -2 28 -12 13 -17 13 -17 -5 -3 -17 14 -18 13
-12 -6 6 -18 3 -21 -18 -17 -14 3 -33 14 -43 26 -10 11 -12 17 -4 12 9 -5 12
-3 9 6 -3 8 -11 13 -17 11 -7 -1 -10 2 -6 8 3 5 2 10 -2 10 -5 0 -10 10 -10
22 -1 13 1 18 5 12 4 -6 14 -13 23 -16z m-2895 -9 c6 -5 14 -6 17 -2 4 3 7 3
7 0 0 -3 -9 -11 -20 -17 -11 -6 -19 -7 -18 -3 2 4 -1 9 -7 11 -15 3 -12 -51 3
-56 7 -2 16 5 19 16 6 25 25 34 44 20 11 -8 11 -9 -3 -5 -24 8 -29 -2 -12 -28
17 -26 1 -46 -19 -26 -9 9 -7 10 8 5 18 -7 19 -6 6 9 -12 15 -16 16 -30 4 -27
-24 -41 -9 -41 44 0 42 2 48 18 42 9 -3 22 -10 28 -14z m284 17 c0 -3 -4 -8
-10 -11 -5 -3 -10 -1 -10 4 0 6 5 11 10 11 6 0 10 -2 10 -4z m720 -12 c0 -8
-5 -12 -10 -9 -6 4 -8 11 -5 16 9 14 15 11 15 -7z m1763 1 c-3 -9 -8 -14 -10
-11 -3 3 -2 9 2 15 9 16 15 13 8 -4z m-282 -38 c-16 -16 -38 -17 -38 -2 0 7 8
12 19 10 13 -3 18 2 19 18 1 19 2 19 6 3 3 -10 0 -23 -6 -29z m103 25 c4 9 5
9 4 -2 -1 -8 3 -25 10 -37 9 -16 9 -24 0 -29 -6 -4 -8 -3 -5 2 3 6 2 16 -4 24
-6 10 -9 11 -9 3 0 -7 -8 -13 -19 -13 -10 0 -24 -7 -31 -15 -15 -18 -30 -20
-30 -3 0 6 3 8 7 5 11 -12 32 14 26 31 -6 15 -5 15 10 3 20 -16 32 -9 23 14
-4 10 -14 14 -31 11 -13 -3 -27 -1 -30 4 -3 5 4 7 15 5 11 -2 20 1 20 7 0 6 9
3 19 -6 15 -13 20 -14 25 -4z m112 -8 c2 -34 4 -37 22 -23 15 12 15 11 -1 -7
-14 -15 -19 -16 -26 -5 -5 7 -14 10 -20 7 -6 -4 -11 -2 -11 5 0 8 -5 8 -17 -2
-10 -7 -8 -2 5 12 12 14 19 28 16 31 -3 4 2 5 13 4 10 -2 18 -12 19 -22z
m-1726 2 c0 -8 -4 -17 -9 -21 -6 -3 -9 4 -8 15 1 23 17 28 17 6z m486 -28 c9
-16 11 -27 5 -24 -6 4 -11 0 -11 -9 0 -9 4 -13 10 -10 6 3 7 -1 4 -9 -3 -9
-10 -16 -16 -16 -5 0 -7 4 -3 9 3 5 2 12 -3 15 -5 3 -7 20 -5 38 4 30 3 31
-10 16 -20 -25 -27 -22 -14 6 14 29 22 26 43 -16z m888 19 c16 -13 31 -32 32
-41 1 -10 -1 -15 -4 -11 -4 4 -7 12 -7 18 -1 7 -7 11 -14 9 -7 -1 -10 2 -7 7
3 5 -1 12 -10 15 -12 5 -15 2 -10 -10 3 -8 6 -20 6 -25 0 -6 6 -7 13 -4 6 4 2
-2 -11 -14 l-22 -20 22 -15 22 -16 -26 0 c-14 0 -35 -3 -45 -6 -13 -4 -14 -3
-5 4 14 10 13 43 -2 54 -5 3 -1 14 9 24 17 17 17 17 11 -3 -8 -25 4 -36 24
-22 8 5 10 9 5 9 -6 0 -11 8 -11 18 -1 9 -4 25 -9 35 -10 24 4 21 39 -6z m506
-5 c-6 -2 -7 -9 -3 -15 3 -7 2 -8 -3 -4 -5 5 -9 12 -9 15 0 4 -4 13 -9 20 -7
11 -4 11 13 0 12 -7 17 -14 11 -16z m-444 9 c-4 -5 0 -11 6 -14 7 -3 3 -4 -9
-4 -17 1 -19 4 -11 14 12 15 22 18 14 4z m-1399 -15 c0 -9 -6 -12 -16 -8 -14
5 -14 4 -2 -12 8 -9 10 -16 5 -15 -5 1 -16 1 -24 0 -13 -1 -13 -2 0 -11 13 -8
12 -10 -2 -10 -10 0 -18 -4 -18 -10 0 -5 -5 -10 -12 -10 -9 0 -9 3 0 12 7 7
12 19 12 28 0 13 -1 13 -10 0 -7 -12 -9 -10 -7 7 1 16 4 19 14 12 8 -8 16 -5
25 10 15 24 35 28 35 7z m113 4 c0 -5 -10 -18 -22 -30 -12 -11 -19 -21 -15
-21 4 -1 11 -2 16 -3 5 0 13 -4 17 -8 12 -13 26 -9 18 5 -4 6 -3 8 1 4 5 -4
10 -14 11 -23 2 -14 0 -14 -20 0 -21 13 -25 13 -38 -1 -11 -10 -18 -12 -23 -4
-3 6 -3 10 2 9 4 -2 8 1 8 7 0 5 -6 9 -12 7 -7 -2 -13 2 -13 8 0 5 4 10 9 10
6 0 8 10 6 23 -4 21 -3 21 10 4 13 -18 14 -18 27 2 14 23 18 26 18 11z m200
-6 c0 -17 -12 -18 -26 -4 -8 8 -15 6 -24 -5 -7 -8 -17 -15 -22 -15 -18 0 33
36 53 37 11 1 19 -5 19 -13z m1500 -3 c0 -10 -6 -21 -14 -24 -11 -4 -11 -1 -2
19 13 29 16 30 16 5z m-1618 -5 c7 4 8 2 4 -5 -9 -13 -26 -5 -25 12 0 9 2 8 6
-1 2 -6 10 -9 15 -6z m1583 4 c3 -5 1 -10 -4 -10 -6 0 -11 5 -11 10 0 6 2 10
4 10 3 0 8 -4 11 -10z m-44 -23 c-10 -9 -11 -8 -5 6 3 10 9 15 12 12 3 -3 0
-11 -7 -18z m-2643 -19 c-2 -20 2 -33 9 -33 6 0 15 -4 20 -8 4 -5 4 -8 -2 -7
-5 1 -21 2 -35 1 -20 -1 -22 -3 -10 -11 11 -7 10 -9 -9 -7 l-23 1 22 18 c17
14 18 18 7 18 -9 0 -19 5 -23 12 -5 8 -2 9 10 5 14 -6 17 -3 12 8 -3 9 -2 13
4 10 6 -3 10 1 10 9 0 9 2 16 5 16 3 0 4 -15 3 -32z m32 17 c7 -9 8 -15 2 -15
-5 0 -12 7 -16 15 -3 8 -4 15 -2 15 2 0 9 -7 16 -15z m224 4 c-5 -8 1 -10 20
-7 20 4 24 2 17 -5 -14 -14 -41 -18 -41 -6 0 6 -6 7 -12 3 -9 -5 -9 -2 1 9 15
19 26 23 15 6z m689 -6 c-3 -7 -6 -13 -8 -13 -2 0 -5 6 -8 13 -3 8 1 14 8 14
7 0 11 -6 8 -14z m192 -3 c3 -6 -1 -7 -9 -4 -18 7 -21 14 -7 14 6 0 13 -4 16
-10z m48 -7 c-5 -12 -3 -14 7 -8 8 5 11 4 7 -3 -8 -12 -47 -4 -47 10 0 5 4 7
9 3 5 -3 12 -1 16 5 10 16 15 12 8 -7z m119 -3 c-11 -11 -29 -23 -42 -25 -25
-5 -40 -15 -22 -15 7 0 12 -4 12 -10 0 -14 -27 -1 -34 16 -3 8 -1 12 4 9 5 -3
18 3 30 15 21 21 35 27 25 10 -3 -5 -2 -10 3 -10 6 0 12 7 16 15 3 8 10 15 16
15 6 0 2 -9 -8 -20z m1047 3 c-9 -10 -8 -18 2 -30 13 -16 12 -17 -3 -5 -12 10
-22 11 -35 3 -10 -6 -14 -11 -10 -11 5 0 1 -7 -7 -16 -9 -8 -14 -20 -11 -25 4
-5 2 -9 -3 -9 -6 0 -13 7 -16 16 -3 8 -2 12 4 9 6 -3 10 -1 10 4 0 22 3 26 32
44 16 9 27 21 24 25 -3 5 1 9 9 9 11 0 12 -4 4 -14z m235 -12 c-2 -3 -12 3
-22 13 -16 17 -16 18 5 5 12 -7 20 -15 17 -18z m171 19 c9 -15 27 -12 19 3 -4
7 -3 9 2 4 5 -5 9 -14 9 -20 1 -7 6 -11 12 -10 8 2 8 -5 0 -22 -7 -13 -15 -21
-20 -18 -5 3 -19 -5 -33 -18 -13 -12 -24 -17 -24 -11 0 6 7 15 15 20 12 6 14
14 6 33 -8 21 -10 21 -11 4 0 -11 -12 -33 -26 -50 l-25 -30 12 28 c7 15 15 27
19 27 4 0 11 16 14 35 7 35 19 44 31 25z m-2555 -10 c0 -5 -2 -10 -4 -10 -3 0
-8 5 -11 10 -3 6 -1 10 4 10 6 0 11 -4 11 -10z m1945 3 c-23 -6 -46 -34 -38
-47 4 -5 1 -6 -5 -2 -18 11 16 56 42 55 20 -1 20 -2 1 -6z m325 -8 c0 -8 -4
-15 -9 -15 -13 0 -22 16 -14 24 11 11 23 6 23 -9z m-2386 -4 c4 10 5 10 2 -1
-2 -8 -11 -14 -20 -14 -9 1 -16 -4 -16 -10 0 -6 9 -12 20 -12 11 0 20 4 20 9
0 5 13 -4 30 -19 30 -29 33 -49 3 -21 -17 14 -20 13 -46 -9 -16 -13 -25 -29
-22 -34 3 -6 1 -10 -5 -10 -7 0 -9 -7 -6 -16 3 -8 2 -12 -4 -9 -6 3 -7 17 -4
31 6 24 -1 29 -33 25 -8 -1 -10 5 -7 13 5 14 9 14 26 2 16 -12 25 -12 39 -3
23 14 26 42 4 33 -21 -8 -31 20 -15 40 10 11 15 12 20 3 6 -8 9 -8 14 2z m826
0 c0 -6 -4 -12 -8 -15 -5 -3 -9 1 -9 9 0 8 4 15 9 15 4 0 8 -4 8 -9z m1640 -6
c5 3 10 4 10 1 0 -3 -10 -11 -22 -17 -13 -6 -20 -8 -16 -4 4 5 2 15 -5 24 -10
14 -10 14 5 3 9 -8 22 -11 28 -7z m74 -30 c2 -43 -18 -95 -36 -95 -6 0 -4 8 5
18 20 22 21 29 5 35 -7 2 -5 3 5 1 13 -2 17 2 13 13 -3 8 -6 21 -6 29 0 9 -5
12 -10 9 -6 -4 -7 -12 -4 -18 4 -7 3 -8 -1 -4 -11 9 -16 37 -7 36 4 -1 14 -1
22 0 13 1 13 2 0 12 -11 8 -12 10 -1 7 9 -3 15 -19 15 -43z m-2744 20 c7 -8
10 -21 7 -29 -4 -10 -1 -13 9 -9 10 4 12 0 8 -11 -9 -23 -36 0 -29 25 3 9 2
20 -3 23 -13 8 -9 -63 3 -72 6 -4 16 -15 24 -25 12 -15 12 -17 -2 -11 -8 3
-18 12 -21 20 -3 9 -10 12 -16 9 -6 -4 -10 13 -10 44 0 52 8 62 30 36z m438
-6 c-10 -7 -10 -13 -1 -27 9 -15 8 -19 -2 -19 -8 0 -14 3 -13 6 2 25 -3 29
-26 18 -13 -7 -22 -15 -20 -19 3 -5 1 -8 -5 -8 -5 0 -13 5 -16 10 -3 6 -1 10
6 10 10 0 10 3 1 12 -7 7 -12 16 -12 22 0 5 6 1 14 -9 13 -17 17 -18 40 -6 14
8 23 18 20 22 -3 5 2 6 11 2 13 -5 14 -7 3 -14z m612 6 c-18 -22 19 -57 53
-51 35 6 49 15 42 27 -3 5 1 6 10 2 10 -3 20 0 25 6 5 10 8 9 13 -1 3 -9 -3
-14 -16 -15 -25 -2 -36 -13 -42 -43 -2 -12 -7 -25 -11 -29 -4 -3 -4 6 -2 22 4
20 2 25 -7 17 -6 -5 -15 -7 -18 -3 -4 3 -7 1 -7 -5 0 -6 -7 -9 -16 -5 -13 5
-15 2 -10 -15 4 -12 2 -23 -5 -28 -9 -5 -10 -2 -6 9 3 10 2 17 -3 17 -6 0 -10
-4 -10 -10 0 -5 -4 -10 -10 -10 -5 0 -10 7 -10 15 0 8 -5 15 -11 15 -5 0 -8
-4 -5 -8 3 -5 -1 -9 -9 -9 -8 0 -12 4 -9 9 3 4 -5 8 -17 8 -34 0 -16 11 25 15
20 2 39 -1 42 -6 3 -6 12 -5 20 2 13 10 12 15 -7 35 -18 19 -20 26 -9 39 7 8
15 15 17 15 3 0 0 -7 -7 -15z m397 -5 c-5 -29 -14 -34 -20 -10 -3 11 -1 18 4
14 5 -3 9 0 9 5 0 6 2 11 5 11 3 0 4 -9 2 -20z m843 13 c0 -5 -5 -15 -10 -23
-7 -12 -9 -10 -7 8 1 19 17 33 17 15z m485 -14 c-10 -15 -25 -10 -19 6 4 8 10
12 15 9 5 -3 7 -10 4 -15z m251 -8 c0 -16 -4 -27 -7 -25 -4 2 -6 12 -4 22 2 9
4 20 4 25 1 4 3 7 5 7 2 0 3 -13 2 -29z m-2020 5 c12 -13 10 -15 -15 -14 -23
1 -27 4 -17 14 14 17 15 17 32 0z m262 -12 c-23 -25 -39 -34 -18 -9 6 8 9 18
7 22 -3 5 3 9 13 10 17 2 17 0 -2 -23z m-1203 -4 c-4 -12 -1 -28 6 -36 6 -8 9
-17 5 -21 -3 -3 -6 -1 -6 5 0 7 -7 12 -15 12 -17 0 -17 27 0 47 15 18 17 16
10 -7z m2195 9 c0 -7 7 -17 16 -23 13 -10 13 -12 -4 -13 -14 -1 -21 6 -25 23
-2 13 0 24 4 24 5 0 9 -5 9 -11z m310 1 c0 -5 -5 -10 -11 -10 -5 0 -7 5 -4 10
3 6 8 10 11 10 2 0 4 -4 4 -10z m40 -10 c-6 -11 -12 -20 -14 -20 -2 0 -2 9 1
20 3 11 9 20 15 20 5 0 4 -9 -2 -20z m196 -8 c-4 -11 -14 -23 -23 -26 -12 -5
-13 -4 -5 7 7 8 8 18 4 22 -4 5 -1 5 6 1 7 -5 12 -1 12 10 0 10 3 15 6 11 3
-3 3 -14 0 -25z m-1406 8 c0 -5 -4 -10 -10 -10 -5 0 -10 5 -10 10 0 6 5 10 10
10 6 0 10 -4 10 -10z m17 -12 c-3 -8 -6 -5 -6 6 -1 11 2 17 5 13 3 -3 4 -12 1
-19z m77 -20 c7 -5 7 -8 1 -8 -6 0 -11 -10 -12 -22 -2 -22 -1 -22 13 -4 13 18
14 18 14 2 0 -9 5 -14 10 -11 6 4 8 10 5 15 -3 5 -1 11 5 15 5 3 10 3 10 0 0
-21 -65 -225 -71 -225 -5 0 -4 11 1 24 5 15 5 27 -2 34 -6 6 -6 12 3 17 8 5
10 4 5 -3 -4 -7 -2 -12 3 -12 14 0 14 23 0 37 -8 8 -5 17 9 31 l20 20 -36 -4
-37 -5 40 15 c22 9 42 16 45 16 2 0 -1 5 -7 11 -8 8 -18 6 -37 -6 -15 -10 -29
-15 -32 -12 -3 3 3 8 14 11 18 6 23 30 10 52 -4 5 -5 19 -3 30 5 29 7 31 12 9
3 -11 10 -23 17 -27z m964 17 c-3 -3 -9 2 -12 12 -6 14 -5 15 5 6 7 -7 10 -15
7 -18z m522 21 c0 -9 -30 -14 -35 -6 -4 6 3 10 14 10 12 0 21 -2 21 -4z
m-2643 -33 c0 -16 -1 -20 -4 -10 -3 10 -9 14 -16 10 -7 -4 -6 1 2 10 17 22 16
22 18 -10z m-172 7 c3 -6 -1 -7 -9 -4 -18 7 -21 14 -7 14 6 0 13 -4 16 -10z
m842 -4 c-2 -6 -7 -11 -12 -11 -5 0 -10 5 -12 11 -2 6 3 11 12 11 9 0 14 -5
12 -11z m34 -3 c13 -16 12 -17 -3 -4 -10 7 -18 15 -18 17 0 8 8 3 21 -13z
m1195 8 c-4 -5 6 -13 21 -18 22 -8 24 -11 10 -16 -9 -3 -17 -2 -17 3 0 6 -9
10 -20 10 -22 0 -27 15 -7 23 18 8 19 8 13 -2z m141 -25 c-3 -14 -19 -26 -36
-26 -7 0 -11 6 -7 15 3 8 -3 19 -12 25 -14 9 -13 10 7 4 17 -4 21 -3 16 6 -5
8 -1 8 13 -1 12 -7 20 -18 19 -23z m173 16 c0 -12 -3 -12 -15 -2 -8 7 -15 13
-15 15 0 1 7 2 15 2 8 0 15 -7 15 -15z m143 3 c-3 -9 -8 -14 -10 -11 -3 3 -2
9 2 15 9 16 15 13 8 -4z m-1483 -7 c0 -4 -4 -8 -9 -8 -6 0 -12 4 -15 8 -3 5 1
9 9 9 8 0 15 -4 15 -9z m173 -8 c4 0 6 4 3 9 -13 20 41 -3 58 -26 18 -25 18
-25 -2 -14 -11 6 -22 16 -25 23 -3 10 -9 11 -26 1 -22 -14 -39 -17 -28 -6 4 3
1 13 -5 22 -10 13 -10 14 2 4 8 -7 18 -13 23 -13z m1284 13 c-4 -3 -2 -12 4
-20 9 -9 8 -13 0 -13 -6 0 -11 5 -11 10 0 16 -30 12 -36 -5 -8 -19 -21 -19
-21 0 0 8 4 12 9 9 4 -3 8 -1 8 5 0 5 10 12 23 14 12 2 24 5 26 6 2 0 1 -2 -2
-6z m246 -8 c17 0 19 -8 9 -34 -4 -11 -8 -10 -18 4 -7 10 -20 15 -29 12 -18
-7 -20 4 -3 21 7 7 14 8 17 4 3 -4 14 -8 24 -7z m77 4 c0 -5 -9 -9 -19 -9 -11
0 -22 4 -25 9 -3 5 6 9 19 9 14 0 25 -4 25 -9z m-547 -16 c-4 -10 -2 -14 5 -9
6 3 13 2 17 -4 4 -6 11 -8 16 -5 5 4 9 4 9 1 0 -3 -9 -10 -20 -16 -16 -9 -19
-8 -13 6 4 10 2 15 -3 11 -6 -3 -16 -1 -24 4 -13 8 -13 10 0 19 20 13 20 13
13 -7z m73 2 c-3 -8 0 -15 7 -15 8 0 6 -4 -3 -10 -13 -9 -7 -14 12 -11 4 0 4
-7 1 -16 -5 -12 -3 -14 7 -8 9 6 11 4 5 -5 -6 -10 -12 -7 -26 11 -10 13 -16
26 -13 28 2 2 -2 11 -9 19 -9 13 -9 14 1 8 6 -4 12 -2 12 3 0 6 3 11 6 11 3 0
4 -7 0 -15z m507 8 c-7 -2 -13 -9 -13 -14 0 -6 5 -7 10 -4 6 3 10 2 10 -3 0
-5 -13 -9 -29 -8 -16 0 -27 4 -24 9 2 4 8 5 13 2 4 -3 10 2 14 10 3 8 11 15
18 14 10 0 10 -2 1 -6z m-2802 -26 c-10 -9 -11 -8 -5 6 3 10 9 15 12 12 3 -3
0 -11 -7 -18z m207 6 c-14 -17 -35 -16 -35 1 0 8 10 13 23 12 17 -1 20 -4 12
-13z m728 0 c-5 -15 -4 -15 9 1 15 19 15 19 15 -2 0 -12 0 -23 -1 -24 0 -2 4
-15 10 -30 7 -18 7 -29 0 -33 -5 -4 -7 -10 -4 -15 3 -5 0 -12 -6 -16 -8 -4 -9
-3 -5 4 4 7 1 12 -6 12 -10 0 -10 2 -1 8 14 9 13 52 -2 52 -5 0 -3 5 5 10 12
8 11 10 -7 10 -25 0 -26 1 -17 24 8 22 18 20 10 -1z m124 -5 c0 -18 -2 -20 -9
-8 -6 8 -7 18 -5 22 9 14 14 9 14 -14z m45 12 c-3 -5 -12 -10 -18 -10 -7 0 -6
4 3 10 19 12 23 12 15 0z m-1062 -13 c-3 -5 1 -13 8 -18 11 -7 11 -9 -2 -9 -9
0 -19 8 -21 18 -3 11 0 19 8 19 7 0 10 -5 7 -10z m111 -7 c-7 -7 -18 -7 -35 0
-22 10 -23 10 -2 6 13 -2 26 0 29 6 3 5 9 7 12 3 3 -3 1 -10 -4 -15z m841 -9
c-6 -5 -25 10 -25 20 0 5 6 4 14 -3 8 -7 12 -15 11 -17z m32 -14 c-2 -26 -6
-31 -22 -29 -30 6 -31 10 -7 33 13 11 19 25 16 31 -4 6 -3 8 4 4 5 -3 10 -21
9 -39z m158 34 c-3 -6 3 -14 12 -20 10 -5 15 -12 12 -16 -9 -9 -40 25 -34 36
4 5 8 9 11 9 3 0 3 -4 -1 -9z m-1308 -8 c-4 -3 -2 -12 5 -20 6 -7 8 -16 4 -20
-3 -3 -6 0 -6 8 0 12 -2 11 -11 -1 -9 -13 -10 -12 -5 3 3 10 0 17 -7 17 -8 0
-6 4 3 10 17 11 26 13 17 3z m2679 -19 c-3 -15 -8 -29 -12 -33 -4 -3 -4 2 0
13 5 14 2 17 -9 12 -19 -7 -15 17 5 26 8 4 16 7 18 7 1 1 0 -11 -2 -25z m114
17 c0 -5 -7 -11 -15 -15 -15 -5 -20 5 -8 17 9 10 23 9 23 -2z m-2904 -26 c0
-14 -3 -25 -7 -25 -3 0 -6 11 -6 25 0 14 3 25 6 25 4 0 7 -11 7 -25z m1330 13
c4 -6 3 -8 -4 -4 -5 3 -13 0 -15 -6 -3 -8 -6 -6 -6 5 -1 19 14 23 25 5z m64
-3 c4 3 11 -2 14 -10 5 -13 2 -14 -15 -5 -15 9 -24 8 -37 -2 -12 -8 -11 -5 3
10 11 13 21 19 23 13 2 -6 7 -9 12 -6z m1040 -6 c0 -14 -17 -10 -23 5 -4 10
-1 13 9 9 7 -3 14 -9 14 -14z m174 13 c2 -4 -5 -9 -17 -9 -17 -2 -19 0 -7 7
18 12 18 12 24 2z m67 -9 c12 -16 12 -17 -2 -6 -9 7 -20 9 -24 5 -5 -4 -5 -1
-1 6 9 16 11 15 27 -5z m184 -26 c4 5 5 2 1 -4 -4 -7 -17 -13 -29 -13 -16 0
-18 3 -8 9 8 5 11 18 7 32 -5 20 -3 19 7 -4 7 -15 17 -24 22 -20z m-2785 23
c0 -5 -2 -10 -4 -10 -3 0 -8 5 -11 10 -3 6 -1 10 4 10 6 0 11 -4 11 -10z m73
-10 c-3 -12 -8 -19 -11 -16 -5 6 5 36 12 36 2 0 2 -9 -1 -20z m260 14 c-15 -7
0 -60 16 -56 7 1 10 -2 6 -8 -11 -17 -43 11 -37 33 4 15 2 18 -9 12 -12 -8
-12 -6 0 8 7 9 19 17 25 16 8 0 8 -2 -1 -5z m47 -19 c14 -19 14 -19 -4 -5 -18
14 -19 13 -12 -5 5 -14 4 -17 -4 -9 -6 6 -8 18 -4 28 4 9 7 16 8 14 1 -2 8
-12 16 -23z m680 -7 c0 -5 -4 -8 -10 -8 -5 0 -10 10 -10 23 0 18 2 19 10 7 5
-8 10 -18 10 -22z m1251 23 c-8 -5 -20 -7 -28 -4 -21 8 -15 13 15 13 20 0 23
-3 13 -9z m643 -13 c-4 -13 -7 -28 -7 -35 0 -7 -4 -10 -8 -7 -4 2 -12 -3 -17
-12 -8 -15 -10 -15 -15 0 -4 9 -3 15 1 13 4 -1 7 3 7 8 0 6 -17 9 -37 7 -31
-3 -38 0 -38 15 0 15 -2 16 -10 3 -5 -8 -12 -11 -16 -7 -10 9 -1 17 24 22 12
2 25 -1 28 -7 4 -7 2 -8 -4 -4 -7 4 -12 2 -12 -3 0 -6 9 -11 21 -11 11 0 18 4
14 9 -13 22 19 22 35 1 l17 -23 7 27 c3 14 9 26 12 26 3 0 2 -10 -2 -22z
m-2821 -13 c-3 -9 -8 -14 -10 -11 -3 3 -2 9 2 15 9 16 15 13 8 -4z m71 -1 c3
-8 2 -12 -4 -9 -6 3 -10 10 -10 16 0 14 7 11 14 -7z m36 6 c0 -5 -4 -10 -9
-10 -6 0 -13 5 -16 10 -3 6 1 10 9 10 9 0 16 -4 16 -10z m790 0 c0 -5 -2 -10
-4 -10 -3 0 -8 5 -11 10 -3 6 -1 10 4 10 6 0 11 -4 11 -10z m51 -13 c-10 -9
-11 -8 -5 6 3 10 9 15 12 12 3 -3 0 -11 -7 -18z m207 7 c5 3 9 -1 9 -8 0 -8
-7 -12 -14 -9 -8 3 -13 0 -11 -8 2 -8 -3 -12 -12 -10 -8 2 -24 3 -35 3 -15 -1
-16 1 -6 8 8 4 20 6 27 3 9 -3 11 2 7 19 -6 20 -5 21 10 10 9 -8 20 -11 25 -8z
m1038 -15 c1 -17 8 -35 15 -40 8 -5 9 -9 4 -9 -6 0 -15 4 -20 9 -6 5 -19 11
-30 14 -17 4 -16 5 4 6 24 1 24 1 5 23 -10 12 -14 18 -7 15 6 -4 14 -3 18 3 9
15 10 13 11 -21z m250 16 l29 -15 -28 0 c-16 0 -26 4 -23 9 4 5 0 12 -6 14 -7
3 -10 6 -7 6 4 1 20 -6 35 -14z m-2595 -10 c11 6 11 5 2 -5 -12 -14 -33 -6
-33 13 0 8 3 7 9 -2 5 -8 14 -10 22 -6z m42 2 c8 5 8 2 0 -9 -7 -8 -10 -18 -6
-22 4 -4 1 -4 -8 -1 -12 4 -15 -1 -13 -25 1 -16 -2 -28 -6 -25 -4 3 -6 15 -2
28 5 20 4 21 -14 8 -10 -7 -7 -3 7 11 14 13 24 30 22 38 -2 10 -1 11 3 2 3 -6
11 -9 17 -5z m261 2 c-3 -6 0 -15 7 -20 10 -6 8 -8 -7 -7 -15 2 -20 7 -16 20
2 10 9 18 14 18 5 0 6 -5 2 -11z m2082 -14 c1 -8 -2 -15 -6 -15 -5 0 -8 9 -7
20 1 21 10 18 13 -5z m38 1 c-10 -8 -21 -12 -23 -10 -3 2 4 11 15 18 10 8 21
12 23 10 3 -2 -4 -11 -15 -18z m-2310 6 c3 -5 -1 -9 -9 -9 -8 0 -12 4 -9 9 3
4 7 8 9 8 2 0 6 -4 9 -8z m886 -2 c0 -5 -4 -10 -10 -10 -5 0 -10 5 -10 10 0 6
5 10 10 10 6 0 10 -4 10 -10z m1197 -22 c2 -27 0 -29 -7 -13 -11 26 -12 45 -2
45 4 0 8 -15 9 -32z m653 16 c0 -2 -9 -4 -21 -4 -11 0 -18 4 -14 10 5 8 35 3
35 -6z m-2894 -15 c0 -10 -5 -15 -10 -12 -5 4 -7 -1 -3 -10 3 -10 2 -17 -3
-17 -5 0 -8 13 -8 28 1 31 24 41 24 11z m1097 4 c-5 -12 -3 -14 7 -8 9 6 11 4
5 -4 -5 -9 -11 -9 -17 -3 -6 6 -7 15 -4 21 11 17 16 13 9 -6z m57 2 c-7 -9
-15 -13 -19 -10 -3 3 1 10 9 15 21 14 24 12 10 -5z m90 0 c0 4 7 2 15 -5 8 -7
15 -18 15 -24 0 -6 -5 -3 -11 7 -6 9 -14 15 -18 12 -5 -2 -15 3 -22 13 -13 15
-12 16 4 3 9 -7 17 -10 17 -6z m155 5 c3 -6 -1 -7 -9 -4 -18 7 -21 14 -7 14 6
0 13 -4 16 -10z m1125 0 c0 -5 -8 -10 -17 -10 -15 0 -16 2 -3 10 19 12 20 12
20 0z m507 -12 c-3 -8 -6 -5 -6 6 -1 11 2 17 5 13 3 -3 4 -12 1 -19z m-2877
-13 c0 -12 -19 -12 -23 0 -4 9 -1 12 9 8 7 -3 14 -7 14 -8z m280 0 c-7 -8 -17
-15 -23 -15 -6 0 -2 7 9 15 25 19 30 19 14 0z m937 -7 c-3 -8 -6 -5 -6 6 -1
11 2 17 5 13 3 -3 4 -12 1 -19z m90 5 c0 -7 -5 -13 -10 -13 -5 0 -7 -6 -4 -14
3 -8 -1 -20 -9 -26 -9 -8 -14 -9 -14 -2 0 6 -7 18 -16 26 -8 9 -10 16 -4 16 6
0 13 -7 16 -15 9 -23 19 -18 20 10 1 14 -2 23 -6 20 -5 -3 -11 -1 -15 5 -3 6
4 9 18 8 13 -1 24 -8 24 -15z m837 1 c3 -8 2 -13 -2 -10 -15 9 -45 -23 -38
-41 6 -14 4 -15 -4 -7 -15 15 -3 54 16 54 8 0 14 5 14 10 0 15 7 12 14 -6z
m-1250 -2 c3 -5 0 -9 -7 -10 -21 -1 -57 -11 -70 -18 -9 -6 -8 -3 1 8 8 9 26
19 40 21 15 2 28 5 29 6 1 0 4 -3 7 -7z m-739 -22 c3 -6 -1 -7 -9 -4 -18 7
-21 14 -7 14 6 0 13 -4 16 -10z m853 3 c-4 -19 15 -41 29 -36 11 5 14 3 9 -6
-5 -7 -15 -10 -23 -7 -9 4 -22 1 -30 -5 -11 -10 -12 -8 -4 15 8 19 7 26 -2 26
-8 0 -7 4 3 10 18 12 20 12 18 3z m148 -14 c1 -9 -1 -10 -3 -1 -6 15 -23 16
-23 0 0 -6 -3 -9 -6 -5 -9 9 6 29 19 24 7 -2 12 -10 13 -18z m-1139 -2 c0 -8
-6 -14 -14 -14 -9 0 -10 4 -2 14 6 7 12 13 14 13 1 0 2 -6 2 -13z m854 -10
c-10 -9 -11 -8 -5 6 3 10 9 15 12 12 3 -3 0 -11 -7 -18z m1310 12 c-14 -5 -28
-6 -32 -2 -4 4 6 9 24 10 30 1 31 1 8 -8z m-2331 -9 c8 -5 11 -10 5 -10 -5 0
-17 5 -25 10 -8 5 -10 10 -5 10 6 0 17 -5 25 -10z m1379 -16 c-9 -11 -8 -14 2
-15 10 0 10 -2 2 -5 -7 -3 -9 -13 -6 -22 3 -9 3 -14 -1 -11 -11 11 -15 48 -5
54 5 4 6 11 3 17 -4 7 -2 8 5 4 9 -6 9 -11 0 -22z m906 8 c-3 -3 -11 0 -18 7
-9 10 -8 11 6 5 10 -3 15 -9 12 -12z m-1289 -22 c0 -11 -6 -20 -14 -20 -7 0
-10 5 -6 11 3 6 0 15 -7 20 -11 7 -9 9 6 9 14 0 21 -6 21 -20z m60 9 c3 -6 1
-16 -6 -22 -10 -9 -12 -8 -7 5 3 9 1 19 -6 22 -9 3 -9 5 0 5 6 1 15 -4 19 -10z
m188 2 c4 -5 -3 -7 -14 -4 -23 6 -26 13 -6 13 8 0 17 -4 20 -9z m36 -6 c-7 -9
-15 -13 -19 -10 -3 3 1 10 9 15 21 14 24 12 10 -5z m68 -10 c-3 -3 -9 2 -12
12 -6 14 -5 15 5 6 7 -7 10 -15 7 -18z m-1207 -3 c-7 -2 -18 1 -23 6 -8 8 -4
9 13 5 13 -4 18 -8 10 -11z m46 12 c-3 -3 -12 -4 -19 -1 -8 3 -5 6 6 6 11 1
17 -2 13 -5z m1040 -24 c-2 -11 -6 -22 -9 -26 -4 -3 -5 2 -3 13 2 10 4 21 4
26 1 4 3 7 6 7 3 0 4 -9 2 -20z m-1127 0 c-8 -5 -19 -10 -25 -10 -5 0 -3 5 5
10 8 5 20 10 25 10 6 0 3 -5 -5 -10z m1080 -10 c0 -5 -7 -7 -15 -4 -8 4 -12
10 -9 15 6 11 24 2 24 -11z m105 10 c-3 -5 -12 -10 -18 -10 -7 0 -6 4 3 10 19
12 23 12 15 0z m-1240 -22 c-9 -6 -19 -7 -22 -4 -4 3 -1 6 6 6 7 0 9 4 6 10
-4 6 1 7 11 3 15 -6 15 -7 -1 -15z m1295 12 c0 -5 -2 -10 -4 -10 -3 0 -8 5
-11 10 -3 6 -1 10 4 10 6 0 11 -4 11 -10z m-149 -23 c-10 -9 -11 -8 -5 6 3 10
9 15 12 12 3 -3 0 -11 -7 -18z m119 13 c0 -5 -2 -10 -4 -10 -3 0 -8 5 -11 10
-3 6 -1 10 4 10 6 0 11 -4 11 -10z m-1333 -32 c-3 -7 -5 -2 -5 12 0 14 2 19 5
13 2 -7 2 -19 0 -25z m1482 -17 c-16 -54 -24 -46 -9 9 6 23 14 40 16 37 3 -3
0 -24 -7 -46z m-359 33 c0 -8 -19 -13 -24 -6 -3 5 1 9 9 9 8 0 15 -2 15 -3z
m285 -3 c3 -5 1 -12 -5 -16 -5 -3 -10 1 -10 9 0 18 6 21 15 7z m-311 -20 c3
-4 -6 -6 -19 -3 -14 2 -25 6 -25 8 0 8 39 4 44 -5z m350 1 c3 -5 -1 -9 -9 -9
-8 0 -12 4 -9 9 3 4 7 8 9 8 2 0 6 -4 9 -8z m-274 -12 c0 -5 -5 -10 -11 -10
-5 0 -7 5 -4 10 3 6 8 10 11 10 2 0 4 -4 4 -10z m57 -16 c-3 -3 -12 -4 -19 -1
-8 3 -5 6 6 6 11 1 17 -2 13 -5z m160 -20 c-3 -3 -12 -4 -19 -1 -8 3 -5 6 6 6
11 1 17 -2 13 -5z m50 0 c-3 -3 -12 -4 -19 -1 -8 3 -5 6 6 6 11 1 17 -2 13 -5z
m-60 -665 c38 -14 71 -46 96 -94 31 -58 31 -193 0 -251 -81 -153 -294 -152
-372 1 -21 41 -26 62 -25 125 1 114 42 186 125 219 33 13 142 13 176 0z m402
-91 c75 -118 90 -138 101 -138 6 0 10 49 10 115 l0 115 50 0 50 0 0 -225 0
-225 -50 0 -50 0 -80 120 c-45 67 -85 118 -90 115 -6 -4 -10 -58 -10 -121 l0
-114 -50 0 -50 0 0 225 0 225 55 0 55 0 59 -92z m-909 -558 l0 -90 -143 0
c-98 0 -147 -4 -155 -12 -7 -7 -12 -36 -12 -65 l0 -53 125 0 c144 0 139 4 133
-105 l-3 -60 -125 -5 -125 -5 -5 -125 -5 -125 -95 0 -95 0 -3 355 c-1 195 0
361 3 367 3 10 63 13 255 13 l250 0 0 -90z m325 -280 l0 -365 -105 0 -105 0
-3 355 c-1 195 0 361 3 368 3 9 31 12 107 10 l103 -3 0 -365z m355 90 l5 -275
120 -1 c66 -1 130 -2 143 -3 21 -1 22 -5 22 -91 l0 -90 -247 2 -248 3 -3 355
c-1 195 0 361 3 368 3 9 30 12 102 10 l98 -3 5 -275z m705 123 c38 -84 72
-152 75 -152 3 0 34 64 69 142 36 78 69 148 74 155 7 8 42 12 113 12 l104 0 0
-370 0 -370 -90 0 -90 0 0 196 c0 109 -4 193 -9 190 -5 -3 -43 -76 -85 -162
-66 -134 -79 -155 -97 -152 -17 2 -38 38 -98 168 l-76 165 -5 -200 -5 -200
-92 -3 -93 -3 0 371 0 371 117 -3 117 -3 71 -152z"/>
<path d="M1030 4234 c0 -32 2 -35 23 -29 19 5 20 4 6 -7 -20 -16 -34 -58 -20
-58 6 0 11 5 11 11 0 5 5 7 11 3 11 -7 29 12 29 31 0 6 -5 3 -10 -5 -6 -9 -10
-10 -10 -3 0 7 8 16 18 22 16 9 16 10 0 16 -10 4 -25 5 -33 1 -9 -3 -15 0 -15
10 0 8 4 13 9 10 5 -3 12 1 15 10 9 23 8 24 -14 24 -16 0 -20 -7 -20 -36z"/>
<path d="M4004 4261 c4 -5 0 -11 -6 -14 -10 -3 -8 -10 6 -26 11 -11 15 -21 10
-21 -5 0 -2 -5 6 -10 10 -6 11 -10 3 -10 -7 0 -12 -3 -11 -7 0 -5 -2 -16 -6
-25 -9 -21 18 -53 35 -42 8 4 3 11 -12 20 -21 11 -22 13 -7 19 10 4 16 11 13
15 -3 4 9 13 25 20 26 11 30 18 30 50 l0 37 -46 1 c-26 1 -43 -2 -40 -7z m76
-56 c0 -2 -6 -5 -13 -8 -8 -3 -14 1 -14 8 0 7 6 11 14 8 7 -3 13 -6 13 -8z"/>
<path d="M4060 4170 c-8 -5 -11 -10 -6 -10 6 0 1 -7 -10 -16 -16 -13 -16 -15
-1 -10 21 7 23 -16 3 -33 -17 -14 -13 -51 6 -62 7 -5 11 -12 9 -16 -3 -4 3 -9
12 -11 15 -3 17 7 17 82 0 87 -3 94 -30 76z m20 -44 c0 -14 -4 -27 -9 -30 -4
-3 -8 8 -7 24 1 36 16 41 16 6z m-3 -98 c-3 -8 -6 -5 -6 6 -1 11 2 17 5 13 3
-3 4 -12 1 -19z"/>
<path d="M3985 4149 c-10 -30 -2 -32 12 -3 6 13 7 24 3 24 -5 0 -12 -9 -15
-21z"/>
<path d="M4066 3984 c-4 -9 -2 -13 5 -8 7 4 9 0 5 -12 -3 -11 -1 -26 4 -34 7
-11 10 -3 10 28 0 42 -12 56 -24 26z"/>
<path d="M3084 4216 l-20 -24 25 1 c14 0 34 -3 44 -8 11 -4 17 -3 17 5 0 6 -4
8 -10 5 -5 -3 -10 -2 -10 4 0 5 5 13 10 16 6 4 8 11 4 16 -4 6 -11 6 -19 -1
-8 -7 -14 -7 -17 -1 -1 6 -12 0 -24 -13z"/>
<path d="M3074 4178 c-3 -4 2 -8 10 -8 8 0 17 4 20 8 3 5 -2 9 -10 9 -8 0 -17
-4 -20 -9z"/>
<path d="M2950 4141 c0 -4 14 -8 31 -9 37 -1 35 5 -4 12 -15 2 -27 1 -27 -3z"/>
<path d="M2655 4090 c-3 -5 -1 -10 4 -10 6 0 11 5 11 10 0 6 -2 10 -4 10 -3 0
-8 -4 -11 -10z"/>
<path d="M2560 3880 c0 -5 5 -10 11 -10 5 0 7 5 4 10 -3 6 -8 10 -11 10 -2 0
-4 -4 -4 -10z"/>
<path d="M2590 3881 c0 -6 4 -12 8 -15 5 -3 9 1 9 9 0 8 -4 15 -9 15 -4 0 -8
-4 -8 -9z"/>
<path d="M3344 3762 c-17 -11 -13 -41 5 -34 11 4 12 7 2 10 -11 4 -11 6 0 13
7 4 11 10 8 13 -2 3 -9 2 -15 -2z"/>
<path d="M3276 3752 c-3 -6 -1 -14 5 -17 14 -9 20 -2 10 14 -6 8 -11 9 -15 3z"/>
<path d="M1620 4159 c0 -5 5 -7 10 -4 6 3 10 8 10 11 0 2 -4 4 -10 4 -5 0 -10
-5 -10 -11z"/>
<path d="M1495 4061 c-3 -5 -1 -12 5 -16 5 -3 10 1 10 9 0 18 -6 21 -15 7z"/>
<path d="M2509 4137 c6 -8 8 -18 4 -23 -4 -5 -2 -4 6 3 14 12 7 33 -11 33 -7
0 -7 -4 1 -13z"/>
<path d="M3396 4091 c-4 -5 -2 -12 4 -16 5 -3 10 -3 10 2 0 4 5 1 10 -7 5 -8
10 -10 10 -4 0 17 -27 37 -34 25z"/>
<path d="M2576 4084 c-8 -20 -8 -24 2 -24 4 0 8 9 9 20 2 24 -3 26 -11 4z"/>
<path d="M1055 4040 c-3 -5 1 -10 9 -10 9 0 16 5 16 10 0 6 -4 10 -9 10 -6 0
-13 -4 -16 -10z"/>
<path d="M2902 3738 c-5 -7 -21 -60 -35 -118 -14 -58 -35 -134 -46 -169 -11
-36 -18 -68 -15 -73 3 -4 55 -8 116 -8 109 0 110 0 105 23 -20 88 -86 338 -92
346 -8 14 -20 14 -33 -1z"/>
<path d="M3656 3994 c-3 -7 2 -11 12 -10 9 2 17 7 19 13 5 14 -25 12 -31 -3z"/>
<path d="M3250 3946 c0 -2 8 -10 18 -17 15 -13 16 -12 3 4 -13 16 -21 21 -21
13z"/>
<path d="M1240 3957 c0 -9 -7 -23 -16 -31 -14 -15 -14 -16 0 -16 23 0 30 4 32
15 1 6 3 16 5 24 2 7 -2 16 -8 18 -7 3 -13 -2 -13 -10z"/>
<path d="M3740 3945 c-7 -9 -8 -15 -2 -15 5 0 12 7 16 15 3 8 4 15 2 15 -2 0
-9 -7 -16 -15z"/>
<path d="M3917 3860 c6 -22 18 -26 29 -9 3 6 0 15 -7 20 -22 14 -28 11 -22
-11z"/>
<path d="M2541 3674 c0 -11 3 -14 6 -6 3 7 2 16 -1 19 -3 4 -6 -2 -5 -13z"/>
<path d="M2281 3724 c0 -11 3 -14 6 -6 3 7 2 16 -1 19 -3 4 -6 -2 -5 -13z"/>
<path d="M2268 2690 c-70 -54 -49 -228 29 -243 41 -8 78 16 97 63 20 50 20 90
2 134 -26 63 -82 83 -128 46z"/>
</g>
</svg>
